<?xml version="1.0" standalone="no"?>
 <!DOCTYPE svg PUBLIC "-//W3C//DTD SVG 1.1//EN" 
 "http://www.w3.org/Graphics/SVG/1.1/DTD/svg11.dtd"> 
<svg
  xmlns:svg="http://www.w3.org/2000/svg"
  xmlns="http://www.w3.org/2000/svg"
  xmlns:xlink="http://www.w3.org/1999/xlink"
  version="1.1"
  width="297.0022mm" height="210.0072mm" viewBox="0.0000 0.0000 297.0022 210.0072">
<title>SVG Image created as Projeto Relogio Nixie IN17-F_Courtyard.svg date 2024/04/28 20:41:51 </title>
  <desc>Image generated by PCBNEW </desc>
<g style="fill:#000000; fill-opacity:1.0000;stroke:#000000; stroke-opacity:1.0000;
stroke-linecap:round; stroke-linejoin:round;"
 transform="translate(0 0) scale(1 1)">
</g>
<g style="fill:#000000; fill-opacity:0.0; 
stroke:#000000; stroke-width:0.0000; stroke-opacity:1; 
stroke-linecap:round; stroke-linejoin:round;">
</g>
<g style="fill:#000000; fill-opacity:0.0; 
stroke:#000000; stroke-width:0.0212; stroke-opacity:1; 
stroke-linecap:round; stroke-linejoin:round;">
</g>
<g style="fill:#000000; fill-opacity:0.0; 
stroke:#000000; stroke-width:0.1500; stroke-opacity:1; 
stroke-linecap:round; stroke-linejoin:round;">
<path d="M177.0022 166.0072
L285.0022 166.0072
L285.0022 198.0072
L177.0022 198.0072
L177.0022 166.0072
" />
</g>
<g style="fill:#000000; fill-opacity:0.0; 
stroke:#000000; stroke-width:0.0212; stroke-opacity:1; 
stroke-linecap:round; stroke-linejoin:round;">
</g>
<g style="fill:#000000; fill-opacity:0.0; 
stroke:#000000; stroke-width:0.1500; stroke-opacity:1; 
stroke-linecap:round; stroke-linejoin:round;">
<path d="M10.0000 10.0000
L287.0022 10.0000
L287.0022 200.0072
L10.0000 200.0072
L10.0000 10.0000
" />
</g>
<g style="fill:#000000; fill-opacity:0.0; 
stroke:#000000; stroke-width:0.0212; stroke-opacity:1; 
stroke-linecap:round; stroke-linejoin:round;">
</g>
<g style="fill:#000000; fill-opacity:0.0; 
stroke:#000000; stroke-width:0.1500; stroke-opacity:1; 
stroke-linecap:round; stroke-linejoin:round;">
<path d="M12.0000 12.0000
L285.0022 12.0000
L285.0022 198.0072
L12.0000 198.0072
L12.0000 12.0000
" />
</g>
<g style="fill:#000000; fill-opacity:0.0; 
stroke:#000000; stroke-width:0.0212; stroke-opacity:1; 
stroke-linecap:round; stroke-linejoin:round;">
</g>
<g style="fill:#000000; fill-opacity:0.0; 
stroke:#000000; stroke-width:0.1500; stroke-opacity:1; 
stroke-linecap:round; stroke-linejoin:round;">
<path d="M60.0000 12.0000
L60.0000 10.0000
" />
</g>
<g style="fill:#000000; fill-opacity:0.0; 
stroke:#000000; stroke-width:0.0212; stroke-opacity:1; 
stroke-linecap:round; stroke-linejoin:round;">
</g>
<g style="fill:#000000; fill-opacity:0.0; 
stroke:#000000; stroke-width:0.1500; stroke-opacity:1; 
stroke-linecap:round; stroke-linejoin:round;">
<path d="M110.0000 12.0000
L110.0000 10.0000
" />
</g>
<g style="fill:#000000; fill-opacity:0.0; 
stroke:#000000; stroke-width:0.0212; stroke-opacity:1; 
stroke-linecap:round; stroke-linejoin:round;">
</g>
<g style="fill:#000000; fill-opacity:0.0; 
stroke:#000000; stroke-width:0.1500; stroke-opacity:1; 
stroke-linecap:round; stroke-linejoin:round;">
<path d="M160.0000 12.0000
L160.0000 10.0000
" />
</g>
<g style="fill:#000000; fill-opacity:0.0; 
stroke:#000000; stroke-width:0.0212; stroke-opacity:1; 
stroke-linecap:round; stroke-linejoin:round;">
</g>
<g style="fill:#000000; fill-opacity:0.0; 
stroke:#000000; stroke-width:0.1500; stroke-opacity:1; 
stroke-linecap:round; stroke-linejoin:round;">
<path d="M210.0000 12.0000
L210.0000 10.0000
" />
</g>
<g style="fill:#000000; fill-opacity:0.0; 
stroke:#000000; stroke-width:0.0212; stroke-opacity:1; 
stroke-linecap:round; stroke-linejoin:round;">
</g>
<g style="fill:#000000; fill-opacity:0.0; 
stroke:#000000; stroke-width:0.1500; stroke-opacity:1; 
stroke-linecap:round; stroke-linejoin:round;">
<path d="M260.0000 12.0000
L260.0000 10.0000
" />
</g>
<g style="fill:#000000; fill-opacity:0.0; 
stroke:#000000; stroke-width:0.0212; stroke-opacity:1; 
stroke-linecap:round; stroke-linejoin:round;">
</g>
<g style="fill:#000000; fill-opacity:0.0; 
stroke:#000000; stroke-width:0.1500; stroke-opacity:1; 
stroke-linecap:round; stroke-linejoin:round;">
<text x="35.0000" y="11.6500"
textLength="1.4281" font-size="1.7333" lengthAdjust="spacingAndGlyphs"
text-anchor="start" opacity="0">1</text>
<g class="stroked-text"><desc>1</desc>
<path d="M36.0892 11.5936
L35.3463 11.5936
" />
<path d="M35.7177 11.5936
L35.7177 10.2936
" />
<path d="M35.7177 10.2936
L35.5939 10.4793
" />
<path d="M35.5939 10.4793
L35.4701 10.6031
" />
<path d="M35.4701 10.6031
L35.3463 10.6650
" />
</g></g>
<g style="fill:#000000; fill-opacity:0.0; 
stroke:#000000; stroke-width:0.0212; stroke-opacity:1; 
stroke-linecap:round; stroke-linejoin:round;">
</g>
<g style="fill:#000000; fill-opacity:0.0; 
stroke:#000000; stroke-width:0.1500; stroke-opacity:1; 
stroke-linecap:round; stroke-linejoin:round;">
<text x="85.0000" y="11.6500"
textLength="1.4281" font-size="1.7333" lengthAdjust="spacingAndGlyphs"
text-anchor="start" opacity="0">2</text>
<g class="stroked-text"><desc>2</desc>
<path d="M85.3463 10.4174
L85.4082 10.3555
" />
<path d="M85.4082 10.3555
L85.5320 10.2936
" />
<path d="M85.5320 10.2936
L85.8415 10.2936
" />
<path d="M85.8415 10.2936
L85.9654 10.3555
" />
<path d="M85.9654 10.3555
L86.0273 10.4174
" />
<path d="M86.0273 10.4174
L86.0892 10.5412
" />
<path d="M86.0892 10.5412
L86.0892 10.6650
" />
<path d="M86.0892 10.6650
L86.0273 10.8507
" />
<path d="M86.0273 10.8507
L85.2844 11.5936
" />
<path d="M85.2844 11.5936
L86.0892 11.5936
" />
</g></g>
<g style="fill:#000000; fill-opacity:0.0; 
stroke:#000000; stroke-width:0.0212; stroke-opacity:1; 
stroke-linecap:round; stroke-linejoin:round;">
</g>
<g style="fill:#000000; fill-opacity:0.0; 
stroke:#000000; stroke-width:0.1500; stroke-opacity:1; 
stroke-linecap:round; stroke-linejoin:round;">
<text x="135.0000" y="11.6500"
textLength="1.4281" font-size="1.7333" lengthAdjust="spacingAndGlyphs"
text-anchor="start" opacity="0">3</text>
<g class="stroked-text"><desc>3</desc>
<path d="M135.2844 10.2936
L136.0892 10.2936
" />
<path d="M136.0892 10.2936
L135.6558 10.7888
" />
<path d="M135.6558 10.7888
L135.8415 10.7888
" />
<path d="M135.8415 10.7888
L135.9654 10.8507
" />
<path d="M135.9654 10.8507
L136.0273 10.9127
" />
<path d="M136.0273 10.9127
L136.0892 11.0365
" />
<path d="M136.0892 11.0365
L136.0892 11.3460
" />
<path d="M136.0892 11.3460
L136.0273 11.4698
" />
<path d="M136.0273 11.4698
L135.9654 11.5317
" />
<path d="M135.9654 11.5317
L135.8415 11.5936
" />
<path d="M135.8415 11.5936
L135.4701 11.5936
" />
<path d="M135.4701 11.5936
L135.3463 11.5317
" />
<path d="M135.3463 11.5317
L135.2844 11.4698
" />
</g></g>
<g style="fill:#000000; fill-opacity:0.0; 
stroke:#000000; stroke-width:0.0212; stroke-opacity:1; 
stroke-linecap:round; stroke-linejoin:round;">
</g>
<g style="fill:#000000; fill-opacity:0.0; 
stroke:#000000; stroke-width:0.1500; stroke-opacity:1; 
stroke-linecap:round; stroke-linejoin:round;">
<text x="185.0000" y="11.6500"
textLength="1.4281" font-size="1.7333" lengthAdjust="spacingAndGlyphs"
text-anchor="start" opacity="0">4</text>
<g class="stroked-text"><desc>4</desc>
<path d="M185.9654 10.7269
L185.9654 11.5936
" />
<path d="M185.6558 10.2317
L185.3463 11.1603
" />
<path d="M185.3463 11.1603
L186.1511 11.1603
" />
</g></g>
<g style="fill:#000000; fill-opacity:0.0; 
stroke:#000000; stroke-width:0.0212; stroke-opacity:1; 
stroke-linecap:round; stroke-linejoin:round;">
</g>
<g style="fill:#000000; fill-opacity:0.0; 
stroke:#000000; stroke-width:0.1500; stroke-opacity:1; 
stroke-linecap:round; stroke-linejoin:round;">
<text x="235.0000" y="11.6500"
textLength="1.4281" font-size="1.7333" lengthAdjust="spacingAndGlyphs"
text-anchor="start" opacity="0">5</text>
<g class="stroked-text"><desc>5</desc>
<path d="M236.0273 10.2936
L235.4082 10.2936
" />
<path d="M235.4082 10.2936
L235.3463 10.9127
" />
<path d="M235.3463 10.9127
L235.4082 10.8507
" />
<path d="M235.4082 10.8507
L235.5320 10.7888
" />
<path d="M235.5320 10.7888
L235.8415 10.7888
" />
<path d="M235.8415 10.7888
L235.9654 10.8507
" />
<path d="M235.9654 10.8507
L236.0273 10.9127
" />
<path d="M236.0273 10.9127
L236.0892 11.0365
" />
<path d="M236.0892 11.0365
L236.0892 11.3460
" />
<path d="M236.0892 11.3460
L236.0273 11.4698
" />
<path d="M236.0273 11.4698
L235.9654 11.5317
" />
<path d="M235.9654 11.5317
L235.8415 11.5936
" />
<path d="M235.8415 11.5936
L235.5320 11.5936
" />
<path d="M235.5320 11.5936
L235.4082 11.5317
" />
<path d="M235.4082 11.5317
L235.3463 11.4698
" />
</g></g>
<g style="fill:#000000; fill-opacity:0.0; 
stroke:#000000; stroke-width:0.0212; stroke-opacity:1; 
stroke-linecap:round; stroke-linejoin:round;">
</g>
<g style="fill:#000000; fill-opacity:0.0; 
stroke:#000000; stroke-width:0.1500; stroke-opacity:1; 
stroke-linecap:round; stroke-linejoin:round;">
<text x="285.0000" y="11.6500"
textLength="1.4281" font-size="1.7333" lengthAdjust="spacingAndGlyphs"
text-anchor="start" opacity="0">6</text>
<g class="stroked-text"><desc>6</desc>
<path d="M285.9654 10.2936
L285.7177 10.2936
" />
<path d="M285.7177 10.2936
L285.5939 10.3555
" />
<path d="M285.5939 10.3555
L285.5320 10.4174
" />
<path d="M285.5320 10.4174
L285.4082 10.6031
" />
<path d="M285.4082 10.6031
L285.3463 10.8507
" />
<path d="M285.3463 10.8507
L285.3463 11.3460
" />
<path d="M285.3463 11.3460
L285.4082 11.4698
" />
<path d="M285.4082 11.4698
L285.4701 11.5317
" />
<path d="M285.4701 11.5317
L285.5939 11.5936
" />
<path d="M285.5939 11.5936
L285.8415 11.5936
" />
<path d="M285.8415 11.5936
L285.9654 11.5317
" />
<path d="M285.9654 11.5317
L286.0273 11.4698
" />
<path d="M286.0273 11.4698
L286.0892 11.3460
" />
<path d="M286.0892 11.3460
L286.0892 11.0365
" />
<path d="M286.0892 11.0365
L286.0273 10.9127
" />
<path d="M286.0273 10.9127
L285.9654 10.8507
" />
<path d="M285.9654 10.8507
L285.8415 10.7888
" />
<path d="M285.8415 10.7888
L285.5939 10.7888
" />
<path d="M285.5939 10.7888
L285.4701 10.8507
" />
<path d="M285.4701 10.8507
L285.4082 10.9127
" />
<path d="M285.4082 10.9127
L285.3463 11.0365
" />
</g></g>
<g style="fill:#000000; fill-opacity:0.0; 
stroke:#000000; stroke-width:0.0212; stroke-opacity:1; 
stroke-linecap:round; stroke-linejoin:round;">
</g>
<g style="fill:#000000; fill-opacity:0.0; 
stroke:#000000; stroke-width:0.1500; stroke-opacity:1; 
stroke-linecap:round; stroke-linejoin:round;">
<path d="M60.0000 198.0072
L60.0000 200.0072
" />
</g>
<g style="fill:#000000; fill-opacity:0.0; 
stroke:#000000; stroke-width:0.0212; stroke-opacity:1; 
stroke-linecap:round; stroke-linejoin:round;">
</g>
<g style="fill:#000000; fill-opacity:0.0; 
stroke:#000000; stroke-width:0.1500; stroke-opacity:1; 
stroke-linecap:round; stroke-linejoin:round;">
<path d="M110.0000 198.0072
L110.0000 200.0072
" />
</g>
<g style="fill:#000000; fill-opacity:0.0; 
stroke:#000000; stroke-width:0.0212; stroke-opacity:1; 
stroke-linecap:round; stroke-linejoin:round;">
</g>
<g style="fill:#000000; fill-opacity:0.0; 
stroke:#000000; stroke-width:0.1500; stroke-opacity:1; 
stroke-linecap:round; stroke-linejoin:round;">
<path d="M160.0000 198.0072
L160.0000 200.0072
" />
</g>
<g style="fill:#000000; fill-opacity:0.0; 
stroke:#000000; stroke-width:0.0212; stroke-opacity:1; 
stroke-linecap:round; stroke-linejoin:round;">
</g>
<g style="fill:#000000; fill-opacity:0.0; 
stroke:#000000; stroke-width:0.1500; stroke-opacity:1; 
stroke-linecap:round; stroke-linejoin:round;">
<path d="M210.0000 198.0072
L210.0000 200.0072
" />
</g>
<g style="fill:#000000; fill-opacity:0.0; 
stroke:#000000; stroke-width:0.0212; stroke-opacity:1; 
stroke-linecap:round; stroke-linejoin:round;">
</g>
<g style="fill:#000000; fill-opacity:0.0; 
stroke:#000000; stroke-width:0.1500; stroke-opacity:1; 
stroke-linecap:round; stroke-linejoin:round;">
<path d="M260.0000 198.0072
L260.0000 200.0072
" />
</g>
<g style="fill:#000000; fill-opacity:0.0; 
stroke:#000000; stroke-width:0.0212; stroke-opacity:1; 
stroke-linecap:round; stroke-linejoin:round;">
</g>
<g style="fill:#000000; fill-opacity:0.0; 
stroke:#000000; stroke-width:0.1500; stroke-opacity:1; 
stroke-linecap:round; stroke-linejoin:round;">
<text x="35.0000" y="199.6572"
textLength="1.4281" font-size="1.7333" lengthAdjust="spacingAndGlyphs"
text-anchor="start" opacity="0">1</text>
<g class="stroked-text"><desc>1</desc>
<path d="M36.0892 199.6008
L35.3463 199.6008
" />
<path d="M35.7177 199.6008
L35.7177 198.3008
" />
<path d="M35.7177 198.3008
L35.5939 198.4865
" />
<path d="M35.5939 198.4865
L35.4701 198.6103
" />
<path d="M35.4701 198.6103
L35.3463 198.6722
" />
</g></g>
<g style="fill:#000000; fill-opacity:0.0; 
stroke:#000000; stroke-width:0.0212; stroke-opacity:1; 
stroke-linecap:round; stroke-linejoin:round;">
</g>
<g style="fill:#000000; fill-opacity:0.0; 
stroke:#000000; stroke-width:0.1500; stroke-opacity:1; 
stroke-linecap:round; stroke-linejoin:round;">
<text x="85.0000" y="199.6572"
textLength="1.4281" font-size="1.7333" lengthAdjust="spacingAndGlyphs"
text-anchor="start" opacity="0">2</text>
<g class="stroked-text"><desc>2</desc>
<path d="M85.3463 198.4246
L85.4082 198.3627
" />
<path d="M85.4082 198.3627
L85.5320 198.3008
" />
<path d="M85.5320 198.3008
L85.8415 198.3008
" />
<path d="M85.8415 198.3008
L85.9654 198.3627
" />
<path d="M85.9654 198.3627
L86.0273 198.4246
" />
<path d="M86.0273 198.4246
L86.0892 198.5484
" />
<path d="M86.0892 198.5484
L86.0892 198.6722
" />
<path d="M86.0892 198.6722
L86.0273 198.8579
" />
<path d="M86.0273 198.8579
L85.2844 199.6008
" />
<path d="M85.2844 199.6008
L86.0892 199.6008
" />
</g></g>
<g style="fill:#000000; fill-opacity:0.0; 
stroke:#000000; stroke-width:0.0212; stroke-opacity:1; 
stroke-linecap:round; stroke-linejoin:round;">
</g>
<g style="fill:#000000; fill-opacity:0.0; 
stroke:#000000; stroke-width:0.1500; stroke-opacity:1; 
stroke-linecap:round; stroke-linejoin:round;">
<text x="135.0000" y="199.6572"
textLength="1.4281" font-size="1.7333" lengthAdjust="spacingAndGlyphs"
text-anchor="start" opacity="0">3</text>
<g class="stroked-text"><desc>3</desc>
<path d="M135.2844 198.3008
L136.0892 198.3008
" />
<path d="M136.0892 198.3008
L135.6558 198.7960
" />
<path d="M135.6558 198.7960
L135.8415 198.7960
" />
<path d="M135.8415 198.7960
L135.9654 198.8579
" />
<path d="M135.9654 198.8579
L136.0273 198.9199
" />
<path d="M136.0273 198.9199
L136.0892 199.0437
" />
<path d="M136.0892 199.0437
L136.0892 199.3532
" />
<path d="M136.0892 199.3532
L136.0273 199.4770
" />
<path d="M136.0273 199.4770
L135.9654 199.5389
" />
<path d="M135.9654 199.5389
L135.8415 199.6008
" />
<path d="M135.8415 199.6008
L135.4701 199.6008
" />
<path d="M135.4701 199.6008
L135.3463 199.5389
" />
<path d="M135.3463 199.5389
L135.2844 199.4770
" />
</g></g>
<g style="fill:#000000; fill-opacity:0.0; 
stroke:#000000; stroke-width:0.0212; stroke-opacity:1; 
stroke-linecap:round; stroke-linejoin:round;">
</g>
<g style="fill:#000000; fill-opacity:0.0; 
stroke:#000000; stroke-width:0.1500; stroke-opacity:1; 
stroke-linecap:round; stroke-linejoin:round;">
<text x="185.0000" y="199.6572"
textLength="1.4281" font-size="1.7333" lengthAdjust="spacingAndGlyphs"
text-anchor="start" opacity="0">4</text>
<g class="stroked-text"><desc>4</desc>
<path d="M185.9654 198.7341
L185.9654 199.6008
" />
<path d="M185.6558 198.2389
L185.3463 199.1675
" />
<path d="M185.3463 199.1675
L186.1511 199.1675
" />
</g></g>
<g style="fill:#000000; fill-opacity:0.0; 
stroke:#000000; stroke-width:0.0212; stroke-opacity:1; 
stroke-linecap:round; stroke-linejoin:round;">
</g>
<g style="fill:#000000; fill-opacity:0.0; 
stroke:#000000; stroke-width:0.1500; stroke-opacity:1; 
stroke-linecap:round; stroke-linejoin:round;">
<text x="235.0000" y="199.6572"
textLength="1.4281" font-size="1.7333" lengthAdjust="spacingAndGlyphs"
text-anchor="start" opacity="0">5</text>
<g class="stroked-text"><desc>5</desc>
<path d="M236.0273 198.3008
L235.4082 198.3008
" />
<path d="M235.4082 198.3008
L235.3463 198.9199
" />
<path d="M235.3463 198.9199
L235.4082 198.8579
" />
<path d="M235.4082 198.8579
L235.5320 198.7960
" />
<path d="M235.5320 198.7960
L235.8415 198.7960
" />
<path d="M235.8415 198.7960
L235.9654 198.8579
" />
<path d="M235.9654 198.8579
L236.0273 198.9199
" />
<path d="M236.0273 198.9199
L236.0892 199.0437
" />
<path d="M236.0892 199.0437
L236.0892 199.3532
" />
<path d="M236.0892 199.3532
L236.0273 199.4770
" />
<path d="M236.0273 199.4770
L235.9654 199.5389
" />
<path d="M235.9654 199.5389
L235.8415 199.6008
" />
<path d="M235.8415 199.6008
L235.5320 199.6008
" />
<path d="M235.5320 199.6008
L235.4082 199.5389
" />
<path d="M235.4082 199.5389
L235.3463 199.4770
" />
</g></g>
<g style="fill:#000000; fill-opacity:0.0; 
stroke:#000000; stroke-width:0.0212; stroke-opacity:1; 
stroke-linecap:round; stroke-linejoin:round;">
</g>
<g style="fill:#000000; fill-opacity:0.0; 
stroke:#000000; stroke-width:0.1500; stroke-opacity:1; 
stroke-linecap:round; stroke-linejoin:round;">
<text x="285.0000" y="199.6572"
textLength="1.4281" font-size="1.7333" lengthAdjust="spacingAndGlyphs"
text-anchor="start" opacity="0">6</text>
<g class="stroked-text"><desc>6</desc>
<path d="M285.9654 198.3008
L285.7177 198.3008
" />
<path d="M285.7177 198.3008
L285.5939 198.3627
" />
<path d="M285.5939 198.3627
L285.5320 198.4246
" />
<path d="M285.5320 198.4246
L285.4082 198.6103
" />
<path d="M285.4082 198.6103
L285.3463 198.8579
" />
<path d="M285.3463 198.8579
L285.3463 199.3532
" />
<path d="M285.3463 199.3532
L285.4082 199.4770
" />
<path d="M285.4082 199.4770
L285.4701 199.5389
" />
<path d="M285.4701 199.5389
L285.5939 199.6008
" />
<path d="M285.5939 199.6008
L285.8415 199.6008
" />
<path d="M285.8415 199.6008
L285.9654 199.5389
" />
<path d="M285.9654 199.5389
L286.0273 199.4770
" />
<path d="M286.0273 199.4770
L286.0892 199.3532
" />
<path d="M286.0892 199.3532
L286.0892 199.0437
" />
<path d="M286.0892 199.0437
L286.0273 198.9199
" />
<path d="M286.0273 198.9199
L285.9654 198.8579
" />
<path d="M285.9654 198.8579
L285.8415 198.7960
" />
<path d="M285.8415 198.7960
L285.5939 198.7960
" />
<path d="M285.5939 198.7960
L285.4701 198.8579
" />
<path d="M285.4701 198.8579
L285.4082 198.9199
" />
<path d="M285.4082 198.9199
L285.3463 199.0437
" />
</g></g>
<g style="fill:#000000; fill-opacity:0.0; 
stroke:#000000; stroke-width:0.0212; stroke-opacity:1; 
stroke-linecap:round; stroke-linejoin:round;">
</g>
<g style="fill:#000000; fill-opacity:0.0; 
stroke:#000000; stroke-width:0.1500; stroke-opacity:1; 
stroke-linecap:round; stroke-linejoin:round;">
<path d="M10.0000 60.0000
L12.0000 60.0000
" />
</g>
<g style="fill:#000000; fill-opacity:0.0; 
stroke:#000000; stroke-width:0.0212; stroke-opacity:1; 
stroke-linecap:round; stroke-linejoin:round;">
</g>
<g style="fill:#000000; fill-opacity:0.0; 
stroke:#000000; stroke-width:0.1500; stroke-opacity:1; 
stroke-linecap:round; stroke-linejoin:round;">
<path d="M10.0000 110.0000
L12.0000 110.0000
" />
</g>
<g style="fill:#000000; fill-opacity:0.0; 
stroke:#000000; stroke-width:0.0212; stroke-opacity:1; 
stroke-linecap:round; stroke-linejoin:round;">
</g>
<g style="fill:#000000; fill-opacity:0.0; 
stroke:#000000; stroke-width:0.1500; stroke-opacity:1; 
stroke-linecap:round; stroke-linejoin:round;">
<path d="M10.0000 160.0000
L12.0000 160.0000
" />
</g>
<g style="fill:#000000; fill-opacity:0.0; 
stroke:#000000; stroke-width:0.0212; stroke-opacity:1; 
stroke-linecap:round; stroke-linejoin:round;">
</g>
<g style="fill:#000000; fill-opacity:0.0; 
stroke:#000000; stroke-width:0.1500; stroke-opacity:1; 
stroke-linecap:round; stroke-linejoin:round;">
<text x="11.0000" y="35.6500"
textLength="1.3043" font-size="1.7333" lengthAdjust="spacingAndGlyphs"
text-anchor="middle" opacity="0">A</text>
<g class="stroked-text"><desc>A</desc>
<path d="M10.6905 35.2222
L11.3095 35.2222
" />
<path d="M10.5667 35.5936
L11.0000 34.2936
" />
<path d="M11.0000 34.2936
L11.4333 35.5936
" />
</g></g>
<g style="fill:#000000; fill-opacity:0.0; 
stroke:#000000; stroke-width:0.0212; stroke-opacity:1; 
stroke-linecap:round; stroke-linejoin:round;">
</g>
<g style="fill:#000000; fill-opacity:0.0; 
stroke:#000000; stroke-width:0.1500; stroke-opacity:1; 
stroke-linecap:round; stroke-linejoin:round;">
<text x="11.0000" y="85.6500"
textLength="1.4900" font-size="1.7333" lengthAdjust="spacingAndGlyphs"
text-anchor="middle" opacity="0">B</text>
<g class="stroked-text"><desc>B</desc>
<path d="M11.0929 84.9127
L11.2786 84.9746
" />
<path d="M11.2786 84.9746
L11.3405 85.0365
" />
<path d="M11.3405 85.0365
L11.4024 85.1603
" />
<path d="M11.4024 85.1603
L11.4024 85.3460
" />
<path d="M11.4024 85.3460
L11.3405 85.4698
" />
<path d="M11.3405 85.4698
L11.2786 85.5317
" />
<path d="M11.2786 85.5317
L11.1548 85.5936
" />
<path d="M11.1548 85.5936
L10.6595 85.5936
" />
<path d="M10.6595 85.5936
L10.6595 84.2936
" />
<path d="M10.6595 84.2936
L11.0929 84.2936
" />
<path d="M11.0929 84.2936
L11.2167 84.3555
" />
<path d="M11.2167 84.3555
L11.2786 84.4174
" />
<path d="M11.2786 84.4174
L11.3405 84.5412
" />
<path d="M11.3405 84.5412
L11.3405 84.6650
" />
<path d="M11.3405 84.6650
L11.2786 84.7888
" />
<path d="M11.2786 84.7888
L11.2167 84.8507
" />
<path d="M11.2167 84.8507
L11.0929 84.9127
" />
<path d="M11.0929 84.9127
L10.6595 84.9127
" />
</g></g>
<g style="fill:#000000; fill-opacity:0.0; 
stroke:#000000; stroke-width:0.0212; stroke-opacity:1; 
stroke-linecap:round; stroke-linejoin:round;">
</g>
<g style="fill:#000000; fill-opacity:0.0; 
stroke:#000000; stroke-width:0.1500; stroke-opacity:1; 
stroke-linecap:round; stroke-linejoin:round;">
<text x="11.0000" y="135.6500"
textLength="1.4900" font-size="1.7333" lengthAdjust="spacingAndGlyphs"
text-anchor="middle" opacity="0">C</text>
<g class="stroked-text"><desc>C</desc>
<path d="M11.4024 135.4698
L11.3405 135.5317
" />
<path d="M11.3405 135.5317
L11.1548 135.5936
" />
<path d="M11.1548 135.5936
L11.0310 135.5936
" />
<path d="M11.0310 135.5936
L10.8452 135.5317
" />
<path d="M10.8452 135.5317
L10.7214 135.4079
" />
<path d="M10.7214 135.4079
L10.6595 135.2841
" />
<path d="M10.6595 135.2841
L10.5976 135.0365
" />
<path d="M10.5976 135.0365
L10.5976 134.8507
" />
<path d="M10.5976 134.8507
L10.6595 134.6031
" />
<path d="M10.6595 134.6031
L10.7214 134.4793
" />
<path d="M10.7214 134.4793
L10.8452 134.3555
" />
<path d="M10.8452 134.3555
L11.0310 134.2936
" />
<path d="M11.0310 134.2936
L11.1548 134.2936
" />
<path d="M11.1548 134.2936
L11.3405 134.3555
" />
<path d="M11.3405 134.3555
L11.4024 134.4174
" />
</g></g>
<g style="fill:#000000; fill-opacity:0.0; 
stroke:#000000; stroke-width:0.0212; stroke-opacity:1; 
stroke-linecap:round; stroke-linejoin:round;">
</g>
<g style="fill:#000000; fill-opacity:0.0; 
stroke:#000000; stroke-width:0.1500; stroke-opacity:1; 
stroke-linecap:round; stroke-linejoin:round;">
<text x="11.0000" y="185.6500"
textLength="1.4900" font-size="1.7333" lengthAdjust="spacingAndGlyphs"
text-anchor="middle" opacity="0">D</text>
<g class="stroked-text"><desc>D</desc>
<path d="M10.6595 185.5936
L10.6595 184.2936
" />
<path d="M10.6595 184.2936
L10.9690 184.2936
" />
<path d="M10.9690 184.2936
L11.1548 184.3555
" />
<path d="M11.1548 184.3555
L11.2786 184.4793
" />
<path d="M11.2786 184.4793
L11.3405 184.6031
" />
<path d="M11.3405 184.6031
L11.4024 184.8507
" />
<path d="M11.4024 184.8507
L11.4024 185.0365
" />
<path d="M11.4024 185.0365
L11.3405 185.2841
" />
<path d="M11.3405 185.2841
L11.2786 185.4079
" />
<path d="M11.2786 185.4079
L11.1548 185.5317
" />
<path d="M11.1548 185.5317
L10.9690 185.5936
" />
<path d="M10.9690 185.5936
L10.6595 185.5936
" />
</g></g>
<g style="fill:#000000; fill-opacity:0.0; 
stroke:#000000; stroke-width:0.0212; stroke-opacity:1; 
stroke-linecap:round; stroke-linejoin:round;">
</g>
<g style="fill:#000000; fill-opacity:0.0; 
stroke:#000000; stroke-width:0.1500; stroke-opacity:1; 
stroke-linecap:round; stroke-linejoin:round;">
<path d="M287.0022 60.0000
L285.0022 60.0000
" />
</g>
<g style="fill:#000000; fill-opacity:0.0; 
stroke:#000000; stroke-width:0.0212; stroke-opacity:1; 
stroke-linecap:round; stroke-linejoin:round;">
</g>
<g style="fill:#000000; fill-opacity:0.0; 
stroke:#000000; stroke-width:0.1500; stroke-opacity:1; 
stroke-linecap:round; stroke-linejoin:round;">
<path d="M287.0022 110.0000
L285.0022 110.0000
" />
</g>
<g style="fill:#000000; fill-opacity:0.0; 
stroke:#000000; stroke-width:0.0212; stroke-opacity:1; 
stroke-linecap:round; stroke-linejoin:round;">
</g>
<g style="fill:#000000; fill-opacity:0.0; 
stroke:#000000; stroke-width:0.1500; stroke-opacity:1; 
stroke-linecap:round; stroke-linejoin:round;">
<path d="M287.0022 160.0000
L285.0022 160.0000
" />
</g>
<g style="fill:#000000; fill-opacity:0.0; 
stroke:#000000; stroke-width:0.0212; stroke-opacity:1; 
stroke-linecap:round; stroke-linejoin:round;">
</g>
<g style="fill:#000000; fill-opacity:0.0; 
stroke:#000000; stroke-width:0.1500; stroke-opacity:1; 
stroke-linecap:round; stroke-linejoin:round;">
<text x="286.0022" y="35.6500"
textLength="1.3043" font-size="1.7333" lengthAdjust="spacingAndGlyphs"
text-anchor="middle" opacity="0">A</text>
<g class="stroked-text"><desc>A</desc>
<path d="M285.6927 35.2222
L286.3117 35.2222
" />
<path d="M285.5689 35.5936
L286.0022 34.2936
" />
<path d="M286.0022 34.2936
L286.4355 35.5936
" />
</g></g>
<g style="fill:#000000; fill-opacity:0.0; 
stroke:#000000; stroke-width:0.0212; stroke-opacity:1; 
stroke-linecap:round; stroke-linejoin:round;">
</g>
<g style="fill:#000000; fill-opacity:0.0; 
stroke:#000000; stroke-width:0.1500; stroke-opacity:1; 
stroke-linecap:round; stroke-linejoin:round;">
<text x="286.0022" y="85.6500"
textLength="1.4900" font-size="1.7333" lengthAdjust="spacingAndGlyphs"
text-anchor="middle" opacity="0">B</text>
<g class="stroked-text"><desc>B</desc>
<path d="M286.0951 84.9127
L286.2808 84.9746
" />
<path d="M286.2808 84.9746
L286.3427 85.0365
" />
<path d="M286.3427 85.0365
L286.4046 85.1603
" />
<path d="M286.4046 85.1603
L286.4046 85.3460
" />
<path d="M286.4046 85.3460
L286.3427 85.4698
" />
<path d="M286.3427 85.4698
L286.2808 85.5317
" />
<path d="M286.2808 85.5317
L286.1570 85.5936
" />
<path d="M286.1570 85.5936
L285.6617 85.5936
" />
<path d="M285.6617 85.5936
L285.6617 84.2936
" />
<path d="M285.6617 84.2936
L286.0951 84.2936
" />
<path d="M286.0951 84.2936
L286.2189 84.3555
" />
<path d="M286.2189 84.3555
L286.2808 84.4174
" />
<path d="M286.2808 84.4174
L286.3427 84.5412
" />
<path d="M286.3427 84.5412
L286.3427 84.6650
" />
<path d="M286.3427 84.6650
L286.2808 84.7888
" />
<path d="M286.2808 84.7888
L286.2189 84.8507
" />
<path d="M286.2189 84.8507
L286.0951 84.9127
" />
<path d="M286.0951 84.9127
L285.6617 84.9127
" />
</g></g>
<g style="fill:#000000; fill-opacity:0.0; 
stroke:#000000; stroke-width:0.0212; stroke-opacity:1; 
stroke-linecap:round; stroke-linejoin:round;">
</g>
<g style="fill:#000000; fill-opacity:0.0; 
stroke:#000000; stroke-width:0.1500; stroke-opacity:1; 
stroke-linecap:round; stroke-linejoin:round;">
<text x="286.0022" y="135.6500"
textLength="1.4900" font-size="1.7333" lengthAdjust="spacingAndGlyphs"
text-anchor="middle" opacity="0">C</text>
<g class="stroked-text"><desc>C</desc>
<path d="M286.4046 135.4698
L286.3427 135.5317
" />
<path d="M286.3427 135.5317
L286.1570 135.5936
" />
<path d="M286.1570 135.5936
L286.0332 135.5936
" />
<path d="M286.0332 135.5936
L285.8474 135.5317
" />
<path d="M285.8474 135.5317
L285.7236 135.4079
" />
<path d="M285.7236 135.4079
L285.6617 135.2841
" />
<path d="M285.6617 135.2841
L285.5998 135.0365
" />
<path d="M285.5998 135.0365
L285.5998 134.8507
" />
<path d="M285.5998 134.8507
L285.6617 134.6031
" />
<path d="M285.6617 134.6031
L285.7236 134.4793
" />
<path d="M285.7236 134.4793
L285.8474 134.3555
" />
<path d="M285.8474 134.3555
L286.0332 134.2936
" />
<path d="M286.0332 134.2936
L286.1570 134.2936
" />
<path d="M286.1570 134.2936
L286.3427 134.3555
" />
<path d="M286.3427 134.3555
L286.4046 134.4174
" />
</g></g>
<g style="fill:#000000; fill-opacity:0.0; 
stroke:#000000; stroke-width:0.0212; stroke-opacity:1; 
stroke-linecap:round; stroke-linejoin:round;">
</g>
<g style="fill:#000000; fill-opacity:0.0; 
stroke:#000000; stroke-width:0.1500; stroke-opacity:1; 
stroke-linecap:round; stroke-linejoin:round;">
<text x="286.0022" y="185.6500"
textLength="1.4900" font-size="1.7333" lengthAdjust="spacingAndGlyphs"
text-anchor="middle" opacity="0">D</text>
<g class="stroked-text"><desc>D</desc>
<path d="M285.6617 185.5936
L285.6617 184.2936
" />
<path d="M285.6617 184.2936
L285.9712 184.2936
" />
<path d="M285.9712 184.2936
L286.1570 184.3555
" />
<path d="M286.1570 184.3555
L286.2808 184.4793
" />
<path d="M286.2808 184.4793
L286.3427 184.6031
" />
<path d="M286.3427 184.6031
L286.4046 184.8507
" />
<path d="M286.4046 184.8507
L286.4046 185.0365
" />
<path d="M286.4046 185.0365
L286.3427 185.2841
" />
<path d="M286.3427 185.2841
L286.2808 185.4079
" />
<path d="M286.2808 185.4079
L286.1570 185.5317
" />
<path d="M286.1570 185.5317
L285.9712 185.5936
" />
<path d="M285.9712 185.5936
L285.6617 185.5936
" />
</g></g>
<g style="fill:#000000; fill-opacity:0.0; 
stroke:#000000; stroke-width:0.0212; stroke-opacity:1; 
stroke-linecap:round; stroke-linejoin:round;">
</g>
<g style="fill:#000000; fill-opacity:0.0; 
stroke:#000000; stroke-width:0.1500; stroke-opacity:1; 
stroke-linecap:round; stroke-linejoin:round;">
<text x="200.0022" y="193.8572"
textLength="7.0071" font-size="2.0000" lengthAdjust="spacingAndGlyphs"
text-anchor="start" opacity="0">Date: </text>
<g class="stroked-text"><desc>Date: </desc>
<path d="M200.4580 193.7933
L200.4580 192.2933
" />
<path d="M200.4580 192.2933
L200.8152 192.2933
" />
<path d="M200.8152 192.2933
L201.0295 192.3648
" />
<path d="M201.0295 192.3648
L201.1723 192.5076
" />
<path d="M201.1723 192.5076
L201.2437 192.6505
" />
<path d="M201.2437 192.6505
L201.3152 192.9362
" />
<path d="M201.3152 192.9362
L201.3152 193.1505
" />
<path d="M201.3152 193.1505
L201.2437 193.4362
" />
<path d="M201.2437 193.4362
L201.1723 193.5790
" />
<path d="M201.1723 193.5790
L201.0295 193.7219
" />
<path d="M201.0295 193.7219
L200.8152 193.7933
" />
<path d="M200.8152 193.7933
L200.4580 193.7933
" />
<path d="M202.6009 193.7933
L202.6009 193.0076
" />
<path d="M202.6009 193.0076
L202.5295 192.8648
" />
<path d="M202.5295 192.8648
L202.3866 192.7933
" />
<path d="M202.3866 192.7933
L202.1009 192.7933
" />
<path d="M202.1009 192.7933
L201.9580 192.8648
" />
<path d="M202.6009 193.7219
L202.4580 193.7933
" />
<path d="M202.4580 193.7933
L202.1009 193.7933
" />
<path d="M202.1009 193.7933
L201.9580 193.7219
" />
<path d="M201.9580 193.7219
L201.8866 193.5790
" />
<path d="M201.8866 193.5790
L201.8866 193.4362
" />
<path d="M201.8866 193.4362
L201.9580 193.2933
" />
<path d="M201.9580 193.2933
L202.1009 193.2219
" />
<path d="M202.1009 193.2219
L202.4580 193.2219
" />
<path d="M202.4580 193.2219
L202.6009 193.1505
" />
<path d="M203.1009 192.7933
L203.6723 192.7933
" />
<path d="M203.3152 192.2933
L203.3152 193.5790
" />
<path d="M203.3152 193.5790
L203.3866 193.7219
" />
<path d="M203.3866 193.7219
L203.5295 193.7933
" />
<path d="M203.5295 193.7933
L203.6723 193.7933
" />
<path d="M204.7437 193.7219
L204.6009 193.7933
" />
<path d="M204.6009 193.7933
L204.3152 193.7933
" />
<path d="M204.3152 193.7933
L204.1723 193.7219
" />
<path d="M204.1723 193.7219
L204.1009 193.5790
" />
<path d="M204.1009 193.5790
L204.1009 193.0076
" />
<path d="M204.1009 193.0076
L204.1723 192.8648
" />
<path d="M204.1723 192.8648
L204.3152 192.7933
" />
<path d="M204.3152 192.7933
L204.6009 192.7933
" />
<path d="M204.6009 192.7933
L204.7437 192.8648
" />
<path d="M204.7437 192.8648
L204.8152 193.0076
" />
<path d="M204.8152 193.0076
L204.8152 193.1505
" />
<path d="M204.8152 193.1505
L204.1009 193.2933
" />
<path d="M205.4580 193.6505
L205.5295 193.7219
" />
<path d="M205.5295 193.7219
L205.4580 193.7933
" />
<path d="M205.4580 193.7933
L205.3866 193.7219
" />
<path d="M205.3866 193.7219
L205.4580 193.6505
" />
<path d="M205.4580 193.6505
L205.4580 193.7933
" />
<path d="M205.4580 192.8648
L205.5295 192.9362
" />
<path d="M205.5295 192.9362
L205.4580 193.0076
" />
<path d="M205.4580 193.0076
L205.3866 192.9362
" />
<path d="M205.3866 192.9362
L205.4580 192.8648
" />
<path d="M205.4580 192.8648
L205.4580 193.0076
" />
</g></g>
<g style="fill:#000000; fill-opacity:0.0; 
stroke:#000000; stroke-width:0.0212; stroke-opacity:1; 
stroke-linecap:round; stroke-linejoin:round;">
</g>
<g style="fill:#000000; fill-opacity:0.0; 
stroke:#000000; stroke-width:0.1500; stroke-opacity:1; 
stroke-linecap:round; stroke-linejoin:round;">
<path d="M177.0022 194.5072
L285.0022 194.5072
" />
</g>
<g style="fill:#000000; fill-opacity:0.0; 
stroke:#000000; stroke-width:0.0212; stroke-opacity:1; 
stroke-linecap:round; stroke-linejoin:round;">
</g>
<g style="fill:#000000; fill-opacity:0.0; 
stroke:#000000; stroke-width:0.1500; stroke-opacity:1; 
stroke-linecap:round; stroke-linejoin:round;">
<text x="178.0022" y="196.6572"
textLength="30.5071" font-size="2.0000" lengthAdjust="spacingAndGlyphs"
text-anchor="start" opacity="0">KiCad E.D.A.  kicad 7.0.10</text>
<g class="stroked-text"><desc>KiCad E.D.A.  kicad 7.0.10</desc>
<path d="M178.4580 196.5933
L178.4580 195.0933
" />
<path d="M179.3152 196.5933
L178.6723 195.7362
" />
<path d="M179.3152 195.0933
L178.4580 195.9505
" />
<path d="M179.9580 196.5933
L179.9580 195.5933
" />
<path d="M179.9580 195.0933
L179.8866 195.1648
" />
<path d="M179.8866 195.1648
L179.9580 195.2362
" />
<path d="M179.9580 195.2362
L180.0295 195.1648
" />
<path d="M180.0295 195.1648
L179.9580 195.0933
" />
<path d="M179.9580 195.0933
L179.9580 195.2362
" />
<path d="M181.5295 196.4505
L181.4580 196.5219
" />
<path d="M181.4580 196.5219
L181.2437 196.5933
" />
<path d="M181.2437 196.5933
L181.1009 196.5933
" />
<path d="M181.1009 196.5933
L180.8866 196.5219
" />
<path d="M180.8866 196.5219
L180.7437 196.3790
" />
<path d="M180.7437 196.3790
L180.6723 196.2362
" />
<path d="M180.6723 196.2362
L180.6009 195.9505
" />
<path d="M180.6009 195.9505
L180.6009 195.7362
" />
<path d="M180.6009 195.7362
L180.6723 195.4505
" />
<path d="M180.6723 195.4505
L180.7437 195.3076
" />
<path d="M180.7437 195.3076
L180.8866 195.1648
" />
<path d="M180.8866 195.1648
L181.1009 195.0933
" />
<path d="M181.1009 195.0933
L181.2437 195.0933
" />
<path d="M181.2437 195.0933
L181.4580 195.1648
" />
<path d="M181.4580 195.1648
L181.5295 195.2362
" />
<path d="M182.8152 196.5933
L182.8152 195.8076
" />
<path d="M182.8152 195.8076
L182.7437 195.6648
" />
<path d="M182.7437 195.6648
L182.6009 195.5933
" />
<path d="M182.6009 195.5933
L182.3152 195.5933
" />
<path d="M182.3152 195.5933
L182.1723 195.6648
" />
<path d="M182.8152 196.5219
L182.6723 196.5933
" />
<path d="M182.6723 196.5933
L182.3152 196.5933
" />
<path d="M182.3152 196.5933
L182.1723 196.5219
" />
<path d="M182.1723 196.5219
L182.1009 196.3790
" />
<path d="M182.1009 196.3790
L182.1009 196.2362
" />
<path d="M182.1009 196.2362
L182.1723 196.0933
" />
<path d="M182.1723 196.0933
L182.3152 196.0219
" />
<path d="M182.3152 196.0219
L182.6723 196.0219
" />
<path d="M182.6723 196.0219
L182.8152 195.9505
" />
<path d="M184.1723 196.5933
L184.1723 195.0933
" />
<path d="M184.1723 196.5219
L184.0295 196.5933
" />
<path d="M184.0295 196.5933
L183.7437 196.5933
" />
<path d="M183.7437 196.5933
L183.6009 196.5219
" />
<path d="M183.6009 196.5219
L183.5295 196.4505
" />
<path d="M183.5295 196.4505
L183.4580 196.3076
" />
<path d="M183.4580 196.3076
L183.4580 195.8790
" />
<path d="M183.4580 195.8790
L183.5295 195.7362
" />
<path d="M183.5295 195.7362
L183.6009 195.6648
" />
<path d="M183.6009 195.6648
L183.7437 195.5933
" />
<path d="M183.7437 195.5933
L184.0295 195.5933
" />
<path d="M184.0295 195.5933
L184.1723 195.6648
" />
<path d="M186.0295 195.8076
L186.5295 195.8076
" />
<path d="M186.7437 196.5933
L186.0295 196.5933
" />
<path d="M186.0295 196.5933
L186.0295 195.0933
" />
<path d="M186.0295 195.0933
L186.7437 195.0933
" />
<path d="M187.3866 196.4505
L187.4580 196.5219
" />
<path d="M187.4580 196.5219
L187.3866 196.5933
" />
<path d="M187.3866 196.5933
L187.3152 196.5219
" />
<path d="M187.3152 196.5219
L187.3866 196.4505
" />
<path d="M187.3866 196.4505
L187.3866 196.5933
" />
<path d="M188.1009 196.5933
L188.1009 195.0933
" />
<path d="M188.1009 195.0933
L188.4580 195.0933
" />
<path d="M188.4580 195.0933
L188.6723 195.1648
" />
<path d="M188.6723 195.1648
L188.8152 195.3076
" />
<path d="M188.8152 195.3076
L188.8866 195.4505
" />
<path d="M188.8866 195.4505
L188.9580 195.7362
" />
<path d="M188.9580 195.7362
L188.9580 195.9505
" />
<path d="M188.9580 195.9505
L188.8866 196.2362
" />
<path d="M188.8866 196.2362
L188.8152 196.3790
" />
<path d="M188.8152 196.3790
L188.6723 196.5219
" />
<path d="M188.6723 196.5219
L188.4580 196.5933
" />
<path d="M188.4580 196.5933
L188.1009 196.5933
" />
<path d="M189.6009 196.4505
L189.6723 196.5219
" />
<path d="M189.6723 196.5219
L189.6009 196.5933
" />
<path d="M189.6009 196.5933
L189.5295 196.5219
" />
<path d="M189.5295 196.5219
L189.6009 196.4505
" />
<path d="M189.6009 196.4505
L189.6009 196.5933
" />
<path d="M190.2437 196.1648
L190.9580 196.1648
" />
<path d="M190.1009 196.5933
L190.6009 195.0933
" />
<path d="M190.6009 195.0933
L191.1009 196.5933
" />
<path d="M191.6009 196.4505
L191.6723 196.5219
" />
<path d="M191.6723 196.5219
L191.6009 196.5933
" />
<path d="M191.6009 196.5933
L191.5295 196.5219
" />
<path d="M191.5295 196.5219
L191.6009 196.4505
" />
<path d="M191.6009 196.4505
L191.6009 196.5933
" />
<path d="M194.6009 196.5933
L194.6009 195.0933
" />
<path d="M194.7437 196.0219
L195.1723 196.5933
" />
<path d="M195.1723 195.5933
L194.6009 196.1648
" />
<path d="M195.8152 196.5933
L195.8152 195.5933
" />
<path d="M195.8152 195.0933
L195.7437 195.1648
" />
<path d="M195.7437 195.1648
L195.8152 195.2362
" />
<path d="M195.8152 195.2362
L195.8866 195.1648
" />
<path d="M195.8866 195.1648
L195.8152 195.0933
" />
<path d="M195.8152 195.0933
L195.8152 195.2362
" />
<path d="M197.1723 196.5219
L197.0295 196.5933
" />
<path d="M197.0295 196.5933
L196.7437 196.5933
" />
<path d="M196.7437 196.5933
L196.6009 196.5219
" />
<path d="M196.6009 196.5219
L196.5295 196.4505
" />
<path d="M196.5295 196.4505
L196.4580 196.3076
" />
<path d="M196.4580 196.3076
L196.4580 195.8790
" />
<path d="M196.4580 195.8790
L196.5295 195.7362
" />
<path d="M196.5295 195.7362
L196.6009 195.6648
" />
<path d="M196.6009 195.6648
L196.7437 195.5933
" />
<path d="M196.7437 195.5933
L197.0295 195.5933
" />
<path d="M197.0295 195.5933
L197.1723 195.6648
" />
<path d="M198.4580 196.5933
L198.4580 195.8076
" />
<path d="M198.4580 195.8076
L198.3866 195.6648
" />
<path d="M198.3866 195.6648
L198.2437 195.5933
" />
<path d="M198.2437 195.5933
L197.9580 195.5933
" />
<path d="M197.9580 195.5933
L197.8152 195.6648
" />
<path d="M198.4580 196.5219
L198.3152 196.5933
" />
<path d="M198.3152 196.5933
L197.9580 196.5933
" />
<path d="M197.9580 196.5933
L197.8152 196.5219
" />
<path d="M197.8152 196.5219
L197.7437 196.3790
" />
<path d="M197.7437 196.3790
L197.7437 196.2362
" />
<path d="M197.7437 196.2362
L197.8152 196.0933
" />
<path d="M197.8152 196.0933
L197.9580 196.0219
" />
<path d="M197.9580 196.0219
L198.3152 196.0219
" />
<path d="M198.3152 196.0219
L198.4580 195.9505
" />
<path d="M199.8152 196.5933
L199.8152 195.0933
" />
<path d="M199.8152 196.5219
L199.6723 196.5933
" />
<path d="M199.6723 196.5933
L199.3866 196.5933
" />
<path d="M199.3866 196.5933
L199.2437 196.5219
" />
<path d="M199.2437 196.5219
L199.1723 196.4505
" />
<path d="M199.1723 196.4505
L199.1009 196.3076
" />
<path d="M199.1009 196.3076
L199.1009 195.8790
" />
<path d="M199.1009 195.8790
L199.1723 195.7362
" />
<path d="M199.1723 195.7362
L199.2437 195.6648
" />
<path d="M199.2437 195.6648
L199.3866 195.5933
" />
<path d="M199.3866 195.5933
L199.6723 195.5933
" />
<path d="M199.6723 195.5933
L199.8152 195.6648
" />
<path d="M201.5295 195.0933
L202.5295 195.0933
" />
<path d="M202.5295 195.0933
L201.8866 196.5933
" />
<path d="M203.1009 196.4505
L203.1723 196.5219
" />
<path d="M203.1723 196.5219
L203.1009 196.5933
" />
<path d="M203.1009 196.5933
L203.0295 196.5219
" />
<path d="M203.0295 196.5219
L203.1009 196.4505
" />
<path d="M203.1009 196.4505
L203.1009 196.5933
" />
<path d="M204.1009 195.0933
L204.2437 195.0933
" />
<path d="M204.2437 195.0933
L204.3866 195.1648
" />
<path d="M204.3866 195.1648
L204.4580 195.2362
" />
<path d="M204.4580 195.2362
L204.5295 195.3790
" />
<path d="M204.5295 195.3790
L204.6009 195.6648
" />
<path d="M204.6009 195.6648
L204.6009 196.0219
" />
<path d="M204.6009 196.0219
L204.5295 196.3076
" />
<path d="M204.5295 196.3076
L204.4580 196.4505
" />
<path d="M204.4580 196.4505
L204.3866 196.5219
" />
<path d="M204.3866 196.5219
L204.2437 196.5933
" />
<path d="M204.2437 196.5933
L204.1009 196.5933
" />
<path d="M204.1009 196.5933
L203.9580 196.5219
" />
<path d="M203.9580 196.5219
L203.8866 196.4505
" />
<path d="M203.8866 196.4505
L203.8152 196.3076
" />
<path d="M203.8152 196.3076
L203.7437 196.0219
" />
<path d="M203.7437 196.0219
L203.7437 195.6648
" />
<path d="M203.7437 195.6648
L203.8152 195.3790
" />
<path d="M203.8152 195.3790
L203.8866 195.2362
" />
<path d="M203.8866 195.2362
L203.9580 195.1648
" />
<path d="M203.9580 195.1648
L204.1009 195.0933
" />
<path d="M205.2437 196.4505
L205.3152 196.5219
" />
<path d="M205.3152 196.5219
L205.2437 196.5933
" />
<path d="M205.2437 196.5933
L205.1723 196.5219
" />
<path d="M205.1723 196.5219
L205.2437 196.4505
" />
<path d="M205.2437 196.4505
L205.2437 196.5933
" />
<path d="M206.7437 196.5933
L205.8866 196.5933
" />
<path d="M206.3152 196.5933
L206.3152 195.0933
" />
<path d="M206.3152 195.0933
L206.1723 195.3076
" />
<path d="M206.1723 195.3076
L206.0295 195.4505
" />
<path d="M206.0295 195.4505
L205.8866 195.5219
" />
<path d="M207.6723 195.0933
L207.8152 195.0933
" />
<path d="M207.8152 195.0933
L207.9580 195.1648
" />
<path d="M207.9580 195.1648
L208.0295 195.2362
" />
<path d="M208.0295 195.2362
L208.1009 195.3790
" />
<path d="M208.1009 195.3790
L208.1723 195.6648
" />
<path d="M208.1723 195.6648
L208.1723 196.0219
" />
<path d="M208.1723 196.0219
L208.1009 196.3076
" />
<path d="M208.1009 196.3076
L208.0295 196.4505
" />
<path d="M208.0295 196.4505
L207.9580 196.5219
" />
<path d="M207.9580 196.5219
L207.8152 196.5933
" />
<path d="M207.8152 196.5933
L207.6723 196.5933
" />
<path d="M207.6723 196.5933
L207.5295 196.5219
" />
<path d="M207.5295 196.5219
L207.4580 196.4505
" />
<path d="M207.4580 196.4505
L207.3866 196.3076
" />
<path d="M207.3866 196.3076
L207.3152 196.0219
" />
<path d="M207.3152 196.0219
L207.3152 195.6648
" />
<path d="M207.3152 195.6648
L207.3866 195.3790
" />
<path d="M207.3866 195.3790
L207.4580 195.2362
" />
<path d="M207.4580 195.2362
L207.5295 195.1648
" />
<path d="M207.5295 195.1648
L207.6723 195.0933
" />
</g></g>
<g style="fill:#000000; fill-opacity:0.0; 
stroke:#000000; stroke-width:0.0212; stroke-opacity:1; 
stroke-linecap:round; stroke-linejoin:round;">
</g>
<g style="fill:#000000; fill-opacity:0.0; 
stroke:#000000; stroke-width:0.1500; stroke-opacity:1; 
stroke-linecap:round; stroke-linejoin:round;">
<path d="M177.0022 191.5072
L285.0022 191.5072
" />
</g>
<g style="fill:#000000; fill-opacity:0.0; 
stroke:#000000; stroke-width:0.0212; stroke-opacity:1; 
stroke-linecap:round; stroke-linejoin:round;">
</g>
<g style="fill:#000000; fill-opacity:0.0; 
stroke:#000000; stroke-width:0.3000; stroke-opacity:1; 
stroke-linecap:round; stroke-linejoin:round;">
<text x="263.0022" y="193.8572"
textLength="6.3857" font-size="2.0000" lengthAdjust="spacingAndGlyphs"
text-anchor="start" opacity="0">Rev: </text>
<g class="stroked-text"><desc>Rev: </desc>
<path d="M264.4139 193.7855
L263.9139 193.0712
" />
<path d="M263.5567 193.7855
L263.5567 192.2855
" />
<path d="M263.5567 192.2855
L264.1281 192.2855
" />
<path d="M264.1281 192.2855
L264.2710 192.3570
" />
<path d="M264.2710 192.3570
L264.3424 192.4284
" />
<path d="M264.3424 192.4284
L264.4139 192.5712
" />
<path d="M264.4139 192.5712
L264.4139 192.7855
" />
<path d="M264.4139 192.7855
L264.3424 192.9284
" />
<path d="M264.3424 192.9284
L264.2710 192.9998
" />
<path d="M264.2710 192.9998
L264.1281 193.0712
" />
<path d="M264.1281 193.0712
L263.5567 193.0712
" />
<path d="M265.6281 193.7141
L265.4853 193.7855
" />
<path d="M265.4853 193.7855
L265.1996 193.7855
" />
<path d="M265.1996 193.7855
L265.0567 193.7141
" />
<path d="M265.0567 193.7141
L264.9853 193.5712
" />
<path d="M264.9853 193.5712
L264.9853 192.9998
" />
<path d="M264.9853 192.9998
L265.0567 192.8570
" />
<path d="M265.0567 192.8570
L265.1996 192.7855
" />
<path d="M265.1996 192.7855
L265.4853 192.7855
" />
<path d="M265.4853 192.7855
L265.6281 192.8570
" />
<path d="M265.6281 192.8570
L265.6996 192.9998
" />
<path d="M265.6996 192.9998
L265.6996 193.1427
" />
<path d="M265.6996 193.1427
L264.9853 193.2855
" />
<path d="M266.1996 192.7855
L266.5567 193.7855
" />
<path d="M266.5567 193.7855
L266.9139 192.7855
" />
<path d="M267.4853 193.6427
L267.5567 193.7141
" />
<path d="M267.5567 193.7141
L267.4853 193.7855
" />
<path d="M267.4853 193.7855
L267.4139 193.7141
" />
<path d="M267.4139 193.7141
L267.4853 193.6427
" />
<path d="M267.4853 193.6427
L267.4853 193.7855
" />
<path d="M267.4853 192.8570
L267.5567 192.9284
" />
<path d="M267.5567 192.9284
L267.4853 192.9998
" />
<path d="M267.4853 192.9998
L267.4139 192.9284
" />
<path d="M267.4139 192.9284
L267.4853 192.8570
" />
<path d="M267.4853 192.8570
L267.4853 192.9998
" />
</g></g>
<g style="fill:#000000; fill-opacity:0.0; 
stroke:#000000; stroke-width:0.0212; stroke-opacity:1; 
stroke-linecap:round; stroke-linejoin:round;">
</g>
<g style="fill:#000000; fill-opacity:0.0; 
stroke:#000000; stroke-width:0.1500; stroke-opacity:1; 
stroke-linecap:round; stroke-linejoin:round;">
<text x="178.0022" y="193.8572"
textLength="9.3643" font-size="2.0000" lengthAdjust="spacingAndGlyphs"
text-anchor="start" opacity="0">Size: A4</text>
<g class="stroked-text"><desc>Size: A4</desc>
<path d="M178.3866 193.7219
L178.6009 193.7933
" />
<path d="M178.6009 193.7933
L178.9580 193.7933
" />
<path d="M178.9580 193.7933
L179.1009 193.7219
" />
<path d="M179.1009 193.7219
L179.1723 193.6505
" />
<path d="M179.1723 193.6505
L179.2437 193.5076
" />
<path d="M179.2437 193.5076
L179.2437 193.3648
" />
<path d="M179.2437 193.3648
L179.1723 193.2219
" />
<path d="M179.1723 193.2219
L179.1009 193.1505
" />
<path d="M179.1009 193.1505
L178.9580 193.0790
" />
<path d="M178.9580 193.0790
L178.6723 193.0076
" />
<path d="M178.6723 193.0076
L178.5295 192.9362
" />
<path d="M178.5295 192.9362
L178.4580 192.8648
" />
<path d="M178.4580 192.8648
L178.3866 192.7219
" />
<path d="M178.3866 192.7219
L178.3866 192.5790
" />
<path d="M178.3866 192.5790
L178.4580 192.4362
" />
<path d="M178.4580 192.4362
L178.5295 192.3648
" />
<path d="M178.5295 192.3648
L178.6723 192.2933
" />
<path d="M178.6723 192.2933
L179.0295 192.2933
" />
<path d="M179.0295 192.2933
L179.2437 192.3648
" />
<path d="M179.8866 193.7933
L179.8866 192.7933
" />
<path d="M179.8866 192.2933
L179.8152 192.3648
" />
<path d="M179.8152 192.3648
L179.8866 192.4362
" />
<path d="M179.8866 192.4362
L179.9580 192.3648
" />
<path d="M179.9580 192.3648
L179.8866 192.2933
" />
<path d="M179.8866 192.2933
L179.8866 192.4362
" />
<path d="M180.4580 192.7933
L181.2437 192.7933
" />
<path d="M181.2437 192.7933
L180.4580 193.7933
" />
<path d="M180.4580 193.7933
L181.2437 193.7933
" />
<path d="M182.3866 193.7219
L182.2437 193.7933
" />
<path d="M182.2437 193.7933
L181.9580 193.7933
" />
<path d="M181.9580 193.7933
L181.8152 193.7219
" />
<path d="M181.8152 193.7219
L181.7437 193.5790
" />
<path d="M181.7437 193.5790
L181.7437 193.0076
" />
<path d="M181.7437 193.0076
L181.8152 192.8648
" />
<path d="M181.8152 192.8648
L181.9580 192.7933
" />
<path d="M181.9580 192.7933
L182.2437 192.7933
" />
<path d="M182.2437 192.7933
L182.3866 192.8648
" />
<path d="M182.3866 192.8648
L182.4580 193.0076
" />
<path d="M182.4580 193.0076
L182.4580 193.1505
" />
<path d="M182.4580 193.1505
L181.7437 193.2933
" />
<path d="M183.1009 193.6505
L183.1723 193.7219
" />
<path d="M183.1723 193.7219
L183.1009 193.7933
" />
<path d="M183.1009 193.7933
L183.0295 193.7219
" />
<path d="M183.0295 193.7219
L183.1009 193.6505
" />
<path d="M183.1009 193.6505
L183.1009 193.7933
" />
<path d="M183.1009 192.8648
L183.1723 192.9362
" />
<path d="M183.1723 192.9362
L183.1009 193.0076
" />
<path d="M183.1009 193.0076
L183.0295 192.9362
" />
<path d="M183.0295 192.9362
L183.1009 192.8648
" />
<path d="M183.1009 192.8648
L183.1009 193.0076
" />
<path d="M184.8866 193.3648
L185.6009 193.3648
" />
<path d="M184.7437 193.7933
L185.2437 192.2933
" />
<path d="M185.2437 192.2933
L185.7437 193.7933
" />
<path d="M186.8866 192.7933
L186.8866 193.7933
" />
<path d="M186.5295 192.2219
L186.1723 193.2933
" />
<path d="M186.1723 193.2933
L187.1009 193.2933
" />
</g></g>
<g style="fill:#000000; fill-opacity:0.0; 
stroke:#000000; stroke-width:0.0212; stroke-opacity:1; 
stroke-linecap:round; stroke-linejoin:round;">
</g>
<g style="fill:#000000; fill-opacity:0.0; 
stroke:#000000; stroke-width:0.1500; stroke-opacity:1; 
stroke-linecap:round; stroke-linejoin:round;">
<text x="263.0022" y="196.6572"
textLength="8.5071" font-size="2.0000" lengthAdjust="spacingAndGlyphs"
text-anchor="start" opacity="0">Id: 1/1</text>
<g class="stroked-text"><desc>Id: 1/1</desc>
<path d="M263.4580 196.5933
L263.4580 195.0933
" />
<path d="M264.8152 196.5933
L264.8152 195.0933
" />
<path d="M264.8152 196.5219
L264.6723 196.5933
" />
<path d="M264.6723 196.5933
L264.3866 196.5933
" />
<path d="M264.3866 196.5933
L264.2437 196.5219
" />
<path d="M264.2437 196.5219
L264.1723 196.4505
" />
<path d="M264.1723 196.4505
L264.1009 196.3076
" />
<path d="M264.1009 196.3076
L264.1009 195.8790
" />
<path d="M264.1009 195.8790
L264.1723 195.7362
" />
<path d="M264.1723 195.7362
L264.2437 195.6648
" />
<path d="M264.2437 195.6648
L264.3866 195.5933
" />
<path d="M264.3866 195.5933
L264.6723 195.5933
" />
<path d="M264.6723 195.5933
L264.8152 195.6648
" />
<path d="M265.5295 196.4505
L265.6009 196.5219
" />
<path d="M265.6009 196.5219
L265.5295 196.5933
" />
<path d="M265.5295 196.5933
L265.4580 196.5219
" />
<path d="M265.4580 196.5219
L265.5295 196.4505
" />
<path d="M265.5295 196.4505
L265.5295 196.5933
" />
<path d="M265.5295 195.6648
L265.6009 195.7362
" />
<path d="M265.6009 195.7362
L265.5295 195.8076
" />
<path d="M265.5295 195.8076
L265.4580 195.7362
" />
<path d="M265.4580 195.7362
L265.5295 195.6648
" />
<path d="M265.5295 195.6648
L265.5295 195.8076
" />
<path d="M268.1723 196.5933
L267.3152 196.5933
" />
<path d="M267.7437 196.5933
L267.7437 195.0933
" />
<path d="M267.7437 195.0933
L267.6009 195.3076
" />
<path d="M267.6009 195.3076
L267.4580 195.4505
" />
<path d="M267.4580 195.4505
L267.3152 195.5219
" />
<path d="M269.8866 195.0219
L268.6009 196.9505
" />
<path d="M271.1723 196.5933
L270.3152 196.5933
" />
<path d="M270.7437 196.5933
L270.7437 195.0933
" />
<path d="M270.7437 195.0933
L270.6009 195.3076
" />
<path d="M270.6009 195.3076
L270.4580 195.4505
" />
<path d="M270.4580 195.4505
L270.3152 195.5219
" />
</g></g>
<g style="fill:#000000; fill-opacity:0.0; 
stroke:#000000; stroke-width:0.0212; stroke-opacity:1; 
stroke-linecap:round; stroke-linejoin:round;">
</g>
<g style="fill:#000000; fill-opacity:0.0; 
stroke:#000000; stroke-width:0.1500; stroke-opacity:1; 
stroke-linecap:round; stroke-linejoin:round;">
<path d="M177.0022 187.5072
L285.0022 187.5072
" />
</g>
<g style="fill:#000000; fill-opacity:0.0; 
stroke:#000000; stroke-width:0.0212; stroke-opacity:1; 
stroke-linecap:round; stroke-linejoin:round;">
</g>
<g style="fill:#000000; fill-opacity:0.0; 
stroke:#000000; stroke-width:0.4000; stroke-opacity:1; 
stroke-linecap:round; stroke-linejoin:round;">
<text x="178.0022" y="190.3072"
textLength="9.6571" font-size="2.6667" lengthAdjust="spacingAndGlyphs"
text-anchor="start" opacity="0">Title: </text>
<g class="stroked-text"><desc>Title: </desc>
<path d="M178.6939 188.2116
L179.8368 188.2116
" />
<path d="M179.0154 190.2116
L179.2654 188.2116
" />
<path d="M180.2535 190.2116
L180.4201 188.8783
" />
<path d="M180.5035 188.2116
L180.3963 188.3069
" />
<path d="M180.3963 188.3069
L180.4796 188.4021
" />
<path d="M180.4796 188.4021
L180.5868 188.3069
" />
<path d="M180.5868 188.3069
L180.5035 188.2116
" />
<path d="M180.5035 188.2116
L180.4796 188.4021
" />
<path d="M181.0868 188.8783
L181.8487 188.8783
" />
<path d="M181.4558 188.2116
L181.2415 189.9259
" />
<path d="M181.2415 189.9259
L181.3130 190.1164
" />
<path d="M181.3130 190.1164
L181.4915 190.2116
" />
<path d="M181.4915 190.2116
L181.6820 190.2116
" />
<path d="M182.6344 190.2116
L182.4558 190.1164
" />
<path d="M182.4558 190.1164
L182.3844 189.9259
" />
<path d="M182.3844 189.9259
L182.5987 188.2116
" />
<path d="M184.1701 190.1164
L183.9677 190.2116
" />
<path d="M183.9677 190.2116
L183.5868 190.2116
" />
<path d="M183.5868 190.2116
L183.4082 190.1164
" />
<path d="M183.4082 190.1164
L183.3368 189.9259
" />
<path d="M183.3368 189.9259
L183.4320 189.1640
" />
<path d="M183.4320 189.1640
L183.5511 188.9735
" />
<path d="M183.5511 188.9735
L183.7535 188.8783
" />
<path d="M183.7535 188.8783
L184.1344 188.8783
" />
<path d="M184.1344 188.8783
L184.3130 188.9735
" />
<path d="M184.3130 188.9735
L184.3844 189.1640
" />
<path d="M184.3844 189.1640
L184.3606 189.3545
" />
<path d="M184.3606 189.3545
L183.3844 189.5450
" />
<path d="M185.1344 190.0212
L185.2177 190.1164
" />
<path d="M185.2177 190.1164
L185.1106 190.2116
" />
<path d="M185.1106 190.2116
L185.0273 190.1164
" />
<path d="M185.0273 190.1164
L185.1344 190.0212
" />
<path d="M185.1344 190.0212
L185.1106 190.2116
" />
<path d="M185.2654 188.9735
L185.3487 189.0688
" />
<path d="M185.3487 189.0688
L185.2415 189.1640
" />
<path d="M185.2415 189.1640
L185.1582 189.0688
" />
<path d="M185.1582 189.0688
L185.2654 188.9735
" />
<path d="M185.2654 188.9735
L185.2415 189.1640
" />
</g></g>
<g style="fill:#000000; fill-opacity:0.0; 
stroke:#000000; stroke-width:0.0212; stroke-opacity:1; 
stroke-linecap:round; stroke-linejoin:round;">
</g>
<g style="fill:#000000; fill-opacity:0.0; 
stroke:#000000; stroke-width:0.1500; stroke-opacity:1; 
stroke-linecap:round; stroke-linejoin:round;">
<text x="178.0022" y="186.4572"
textLength="48.2929" font-size="2.0000" lengthAdjust="spacingAndGlyphs"
text-anchor="start" opacity="0">File: Projeto Relogio Nixie IN17.kicad_pcb</text>
<g class="stroked-text"><desc>File: Projeto Relogio Nixie IN17.kicad_pcb</desc>
<path d="M178.9580 185.6076
L178.4580 185.6076
" />
<path d="M178.4580 186.3933
L178.4580 184.8933
" />
<path d="M178.4580 184.8933
L179.1723 184.8933
" />
<path d="M179.7437 186.3933
L179.7437 185.3933
" />
<path d="M179.7437 184.8933
L179.6723 184.9648
" />
<path d="M179.6723 184.9648
L179.7437 185.0362
" />
<path d="M179.7437 185.0362
L179.8152 184.9648
" />
<path d="M179.8152 184.9648
L179.7437 184.8933
" />
<path d="M179.7437 184.8933
L179.7437 185.0362
" />
<path d="M180.6723 186.3933
L180.5295 186.3219
" />
<path d="M180.5295 186.3219
L180.4580 186.1790
" />
<path d="M180.4580 186.1790
L180.4580 184.8933
" />
<path d="M181.8152 186.3219
L181.6723 186.3933
" />
<path d="M181.6723 186.3933
L181.3866 186.3933
" />
<path d="M181.3866 186.3933
L181.2437 186.3219
" />
<path d="M181.2437 186.3219
L181.1723 186.1790
" />
<path d="M181.1723 186.1790
L181.1723 185.6076
" />
<path d="M181.1723 185.6076
L181.2437 185.4648
" />
<path d="M181.2437 185.4648
L181.3866 185.3933
" />
<path d="M181.3866 185.3933
L181.6723 185.3933
" />
<path d="M181.6723 185.3933
L181.8152 185.4648
" />
<path d="M181.8152 185.4648
L181.8866 185.6076
" />
<path d="M181.8866 185.6076
L181.8866 185.7505
" />
<path d="M181.8866 185.7505
L181.1723 185.8933
" />
<path d="M182.5295 186.2505
L182.6009 186.3219
" />
<path d="M182.6009 186.3219
L182.5295 186.3933
" />
<path d="M182.5295 186.3933
L182.4580 186.3219
" />
<path d="M182.4580 186.3219
L182.5295 186.2505
" />
<path d="M182.5295 186.2505
L182.5295 186.3933
" />
<path d="M182.5295 185.4648
L182.6009 185.5362
" />
<path d="M182.6009 185.5362
L182.5295 185.6076
" />
<path d="M182.5295 185.6076
L182.4580 185.5362
" />
<path d="M182.4580 185.5362
L182.5295 185.4648
" />
<path d="M182.5295 185.4648
L182.5295 185.6076
" />
<path d="M184.3866 186.3933
L184.3866 184.8933
" />
<path d="M184.3866 184.8933
L184.9580 184.8933
" />
<path d="M184.9580 184.8933
L185.1009 184.9648
" />
<path d="M185.1009 184.9648
L185.1723 185.0362
" />
<path d="M185.1723 185.0362
L185.2437 185.1790
" />
<path d="M185.2437 185.1790
L185.2437 185.3933
" />
<path d="M185.2437 185.3933
L185.1723 185.5362
" />
<path d="M185.1723 185.5362
L185.1009 185.6076
" />
<path d="M185.1009 185.6076
L184.9580 185.6790
" />
<path d="M184.9580 185.6790
L184.3866 185.6790
" />
<path d="M185.8866 186.3933
L185.8866 185.3933
" />
<path d="M185.8866 185.6790
L185.9580 185.5362
" />
<path d="M185.9580 185.5362
L186.0295 185.4648
" />
<path d="M186.0295 185.4648
L186.1723 185.3933
" />
<path d="M186.1723 185.3933
L186.3152 185.3933
" />
<path d="M187.0295 186.3933
L186.8866 186.3219
" />
<path d="M186.8866 186.3219
L186.8152 186.2505
" />
<path d="M186.8152 186.2505
L186.7437 186.1076
" />
<path d="M186.7437 186.1076
L186.7437 185.6790
" />
<path d="M186.7437 185.6790
L186.8152 185.5362
" />
<path d="M186.8152 185.5362
L186.8866 185.4648
" />
<path d="M186.8866 185.4648
L187.0295 185.3933
" />
<path d="M187.0295 185.3933
L187.2437 185.3933
" />
<path d="M187.2437 185.3933
L187.3866 185.4648
" />
<path d="M187.3866 185.4648
L187.4580 185.5362
" />
<path d="M187.4580 185.5362
L187.5295 185.6790
" />
<path d="M187.5295 185.6790
L187.5295 186.1076
" />
<path d="M187.5295 186.1076
L187.4580 186.2505
" />
<path d="M187.4580 186.2505
L187.3866 186.3219
" />
<path d="M187.3866 186.3219
L187.2437 186.3933
" />
<path d="M187.2437 186.3933
L187.0295 186.3933
" />
<path d="M188.1723 185.3933
L188.1723 186.6790
" />
<path d="M188.1723 186.6790
L188.1009 186.8219
" />
<path d="M188.1009 186.8219
L187.9580 186.8933
" />
<path d="M187.9580 186.8933
L187.8866 186.8933
" />
<path d="M188.1723 184.8933
L188.1009 184.9648
" />
<path d="M188.1009 184.9648
L188.1723 185.0362
" />
<path d="M188.1723 185.0362
L188.2437 184.9648
" />
<path d="M188.2437 184.9648
L188.1723 184.8933
" />
<path d="M188.1723 184.8933
L188.1723 185.0362
" />
<path d="M189.4580 186.3219
L189.3152 186.3933
" />
<path d="M189.3152 186.3933
L189.0295 186.3933
" />
<path d="M189.0295 186.3933
L188.8866 186.3219
" />
<path d="M188.8866 186.3219
L188.8152 186.1790
" />
<path d="M188.8152 186.1790
L188.8152 185.6076
" />
<path d="M188.8152 185.6076
L188.8866 185.4648
" />
<path d="M188.8866 185.4648
L189.0295 185.3933
" />
<path d="M189.0295 185.3933
L189.3152 185.3933
" />
<path d="M189.3152 185.3933
L189.4580 185.4648
" />
<path d="M189.4580 185.4648
L189.5295 185.6076
" />
<path d="M189.5295 185.6076
L189.5295 185.7505
" />
<path d="M189.5295 185.7505
L188.8152 185.8933
" />
<path d="M189.9580 185.3933
L190.5295 185.3933
" />
<path d="M190.1723 184.8933
L190.1723 186.1790
" />
<path d="M190.1723 186.1790
L190.2437 186.3219
" />
<path d="M190.2437 186.3219
L190.3866 186.3933
" />
<path d="M190.3866 186.3933
L190.5295 186.3933
" />
<path d="M191.2437 186.3933
L191.1009 186.3219
" />
<path d="M191.1009 186.3219
L191.0295 186.2505
" />
<path d="M191.0295 186.2505
L190.9580 186.1076
" />
<path d="M190.9580 186.1076
L190.9580 185.6790
" />
<path d="M190.9580 185.6790
L191.0295 185.5362
" />
<path d="M191.0295 185.5362
L191.1009 185.4648
" />
<path d="M191.1009 185.4648
L191.2437 185.3933
" />
<path d="M191.2437 185.3933
L191.4580 185.3933
" />
<path d="M191.4580 185.3933
L191.6009 185.4648
" />
<path d="M191.6009 185.4648
L191.6723 185.5362
" />
<path d="M191.6723 185.5362
L191.7437 185.6790
" />
<path d="M191.7437 185.6790
L191.7437 186.1076
" />
<path d="M191.7437 186.1076
L191.6723 186.2505
" />
<path d="M191.6723 186.2505
L191.6009 186.3219
" />
<path d="M191.6009 186.3219
L191.4580 186.3933
" />
<path d="M191.4580 186.3933
L191.2437 186.3933
" />
<path d="M194.3866 186.3933
L193.8866 185.6790
" />
<path d="M193.5295 186.3933
L193.5295 184.8933
" />
<path d="M193.5295 184.8933
L194.1009 184.8933
" />
<path d="M194.1009 184.8933
L194.2437 184.9648
" />
<path d="M194.2437 184.9648
L194.3152 185.0362
" />
<path d="M194.3152 185.0362
L194.3866 185.1790
" />
<path d="M194.3866 185.1790
L194.3866 185.3933
" />
<path d="M194.3866 185.3933
L194.3152 185.5362
" />
<path d="M194.3152 185.5362
L194.2437 185.6076
" />
<path d="M194.2437 185.6076
L194.1009 185.6790
" />
<path d="M194.1009 185.6790
L193.5295 185.6790
" />
<path d="M195.6009 186.3219
L195.4580 186.3933
" />
<path d="M195.4580 186.3933
L195.1723 186.3933
" />
<path d="M195.1723 186.3933
L195.0295 186.3219
" />
<path d="M195.0295 186.3219
L194.9580 186.1790
" />
<path d="M194.9580 186.1790
L194.9580 185.6076
" />
<path d="M194.9580 185.6076
L195.0295 185.4648
" />
<path d="M195.0295 185.4648
L195.1723 185.3933
" />
<path d="M195.1723 185.3933
L195.4580 185.3933
" />
<path d="M195.4580 185.3933
L195.6009 185.4648
" />
<path d="M195.6009 185.4648
L195.6723 185.6076
" />
<path d="M195.6723 185.6076
L195.6723 185.7505
" />
<path d="M195.6723 185.7505
L194.9580 185.8933
" />
<path d="M196.5295 186.3933
L196.3866 186.3219
" />
<path d="M196.3866 186.3219
L196.3152 186.1790
" />
<path d="M196.3152 186.1790
L196.3152 184.8933
" />
<path d="M197.3152 186.3933
L197.1723 186.3219
" />
<path d="M197.1723 186.3219
L197.1009 186.2505
" />
<path d="M197.1009 186.2505
L197.0295 186.1076
" />
<path d="M197.0295 186.1076
L197.0295 185.6790
" />
<path d="M197.0295 185.6790
L197.1009 185.5362
" />
<path d="M197.1009 185.5362
L197.1723 185.4648
" />
<path d="M197.1723 185.4648
L197.3152 185.3933
" />
<path d="M197.3152 185.3933
L197.5295 185.3933
" />
<path d="M197.5295 185.3933
L197.6723 185.4648
" />
<path d="M197.6723 185.4648
L197.7437 185.5362
" />
<path d="M197.7437 185.5362
L197.8152 185.6790
" />
<path d="M197.8152 185.6790
L197.8152 186.1076
" />
<path d="M197.8152 186.1076
L197.7437 186.2505
" />
<path d="M197.7437 186.2505
L197.6723 186.3219
" />
<path d="M197.6723 186.3219
L197.5295 186.3933
" />
<path d="M197.5295 186.3933
L197.3152 186.3933
" />
<path d="M199.1009 185.3933
L199.1009 186.6076
" />
<path d="M199.1009 186.6076
L199.0295 186.7505
" />
<path d="M199.0295 186.7505
L198.9580 186.8219
" />
<path d="M198.9580 186.8219
L198.8152 186.8933
" />
<path d="M198.8152 186.8933
L198.6009 186.8933
" />
<path d="M198.6009 186.8933
L198.4580 186.8219
" />
<path d="M199.1009 186.3219
L198.9580 186.3933
" />
<path d="M198.9580 186.3933
L198.6723 186.3933
" />
<path d="M198.6723 186.3933
L198.5295 186.3219
" />
<path d="M198.5295 186.3219
L198.4580 186.2505
" />
<path d="M198.4580 186.2505
L198.3866 186.1076
" />
<path d="M198.3866 186.1076
L198.3866 185.6790
" />
<path d="M198.3866 185.6790
L198.4580 185.5362
" />
<path d="M198.4580 185.5362
L198.5295 185.4648
" />
<path d="M198.5295 185.4648
L198.6723 185.3933
" />
<path d="M198.6723 185.3933
L198.9580 185.3933
" />
<path d="M198.9580 185.3933
L199.1009 185.4648
" />
<path d="M199.8152 186.3933
L199.8152 185.3933
" />
<path d="M199.8152 184.8933
L199.7437 184.9648
" />
<path d="M199.7437 184.9648
L199.8152 185.0362
" />
<path d="M199.8152 185.0362
L199.8866 184.9648
" />
<path d="M199.8866 184.9648
L199.8152 184.8933
" />
<path d="M199.8152 184.8933
L199.8152 185.0362
" />
<path d="M200.7437 186.3933
L200.6009 186.3219
" />
<path d="M200.6009 186.3219
L200.5295 186.2505
" />
<path d="M200.5295 186.2505
L200.4580 186.1076
" />
<path d="M200.4580 186.1076
L200.4580 185.6790
" />
<path d="M200.4580 185.6790
L200.5295 185.5362
" />
<path d="M200.5295 185.5362
L200.6009 185.4648
" />
<path d="M200.6009 185.4648
L200.7437 185.3933
" />
<path d="M200.7437 185.3933
L200.9580 185.3933
" />
<path d="M200.9580 185.3933
L201.1009 185.4648
" />
<path d="M201.1009 185.4648
L201.1723 185.5362
" />
<path d="M201.1723 185.5362
L201.2437 185.6790
" />
<path d="M201.2437 185.6790
L201.2437 186.1076
" />
<path d="M201.2437 186.1076
L201.1723 186.2505
" />
<path d="M201.1723 186.2505
L201.1009 186.3219
" />
<path d="M201.1009 186.3219
L200.9580 186.3933
" />
<path d="M200.9580 186.3933
L200.7437 186.3933
" />
<path d="M203.0295 186.3933
L203.0295 184.8933
" />
<path d="M203.0295 184.8933
L203.8866 186.3933
" />
<path d="M203.8866 186.3933
L203.8866 184.8933
" />
<path d="M204.6009 186.3933
L204.6009 185.3933
" />
<path d="M204.6009 184.8933
L204.5295 184.9648
" />
<path d="M204.5295 184.9648
L204.6009 185.0362
" />
<path d="M204.6009 185.0362
L204.6723 184.9648
" />
<path d="M204.6723 184.9648
L204.6009 184.8933
" />
<path d="M204.6009 184.8933
L204.6009 185.0362
" />
<path d="M205.1723 186.3933
L205.9580 185.3933
" />
<path d="M205.1723 185.3933
L205.9580 186.3933
" />
<path d="M206.5295 186.3933
L206.5295 185.3933
" />
<path d="M206.5295 184.8933
L206.4580 184.9648
" />
<path d="M206.4580 184.9648
L206.5295 185.0362
" />
<path d="M206.5295 185.0362
L206.6009 184.9648
" />
<path d="M206.6009 184.9648
L206.5295 184.8933
" />
<path d="M206.5295 184.8933
L206.5295 185.0362
" />
<path d="M207.8152 186.3219
L207.6723 186.3933
" />
<path d="M207.6723 186.3933
L207.3866 186.3933
" />
<path d="M207.3866 186.3933
L207.2437 186.3219
" />
<path d="M207.2437 186.3219
L207.1723 186.1790
" />
<path d="M207.1723 186.1790
L207.1723 185.6076
" />
<path d="M207.1723 185.6076
L207.2437 185.4648
" />
<path d="M207.2437 185.4648
L207.3866 185.3933
" />
<path d="M207.3866 185.3933
L207.6723 185.3933
" />
<path d="M207.6723 185.3933
L207.8152 185.4648
" />
<path d="M207.8152 185.4648
L207.8866 185.6076
" />
<path d="M207.8866 185.6076
L207.8866 185.7505
" />
<path d="M207.8866 185.7505
L207.1723 185.8933
" />
<path d="M209.6723 186.3933
L209.6723 184.8933
" />
<path d="M210.3866 186.3933
L210.3866 184.8933
" />
<path d="M210.3866 184.8933
L211.2437 186.3933
" />
<path d="M211.2437 186.3933
L211.2437 184.8933
" />
<path d="M212.7437 186.3933
L211.8866 186.3933
" />
<path d="M212.3152 186.3933
L212.3152 184.8933
" />
<path d="M212.3152 184.8933
L212.1723 185.1076
" />
<path d="M212.1723 185.1076
L212.0295 185.2505
" />
<path d="M212.0295 185.2505
L211.8866 185.3219
" />
<path d="M213.2437 184.8933
L214.2437 184.8933
" />
<path d="M214.2437 184.8933
L213.6009 186.3933
" />
<path d="M214.8152 186.2505
L214.8866 186.3219
" />
<path d="M214.8866 186.3219
L214.8152 186.3933
" />
<path d="M214.8152 186.3933
L214.7437 186.3219
" />
<path d="M214.7437 186.3219
L214.8152 186.2505
" />
<path d="M214.8152 186.2505
L214.8152 186.3933
" />
<path d="M215.5295 186.3933
L215.5295 184.8933
" />
<path d="M215.6723 185.8219
L216.1009 186.3933
" />
<path d="M216.1009 185.3933
L215.5295 185.9648
" />
<path d="M216.7437 186.3933
L216.7437 185.3933
" />
<path d="M216.7437 184.8933
L216.6723 184.9648
" />
<path d="M216.6723 184.9648
L216.7437 185.0362
" />
<path d="M216.7437 185.0362
L216.8152 184.9648
" />
<path d="M216.8152 184.9648
L216.7437 184.8933
" />
<path d="M216.7437 184.8933
L216.7437 185.0362
" />
<path d="M218.1009 186.3219
L217.9580 186.3933
" />
<path d="M217.9580 186.3933
L217.6723 186.3933
" />
<path d="M217.6723 186.3933
L217.5295 186.3219
" />
<path d="M217.5295 186.3219
L217.4580 186.2505
" />
<path d="M217.4580 186.2505
L217.3866 186.1076
" />
<path d="M217.3866 186.1076
L217.3866 185.6790
" />
<path d="M217.3866 185.6790
L217.4580 185.5362
" />
<path d="M217.4580 185.5362
L217.5295 185.4648
" />
<path d="M217.5295 185.4648
L217.6723 185.3933
" />
<path d="M217.6723 185.3933
L217.9580 185.3933
" />
<path d="M217.9580 185.3933
L218.1009 185.4648
" />
<path d="M219.3866 186.3933
L219.3866 185.6076
" />
<path d="M219.3866 185.6076
L219.3152 185.4648
" />
<path d="M219.3152 185.4648
L219.1723 185.3933
" />
<path d="M219.1723 185.3933
L218.8866 185.3933
" />
<path d="M218.8866 185.3933
L218.7437 185.4648
" />
<path d="M219.3866 186.3219
L219.2437 186.3933
" />
<path d="M219.2437 186.3933
L218.8866 186.3933
" />
<path d="M218.8866 186.3933
L218.7437 186.3219
" />
<path d="M218.7437 186.3219
L218.6723 186.1790
" />
<path d="M218.6723 186.1790
L218.6723 186.0362
" />
<path d="M218.6723 186.0362
L218.7437 185.8933
" />
<path d="M218.7437 185.8933
L218.8866 185.8219
" />
<path d="M218.8866 185.8219
L219.2437 185.8219
" />
<path d="M219.2437 185.8219
L219.3866 185.7505
" />
<path d="M220.7437 186.3933
L220.7437 184.8933
" />
<path d="M220.7437 186.3219
L220.6009 186.3933
" />
<path d="M220.6009 186.3933
L220.3152 186.3933
" />
<path d="M220.3152 186.3933
L220.1723 186.3219
" />
<path d="M220.1723 186.3219
L220.1009 186.2505
" />
<path d="M220.1009 186.2505
L220.0295 186.1076
" />
<path d="M220.0295 186.1076
L220.0295 185.6790
" />
<path d="M220.0295 185.6790
L220.1009 185.5362
" />
<path d="M220.1009 185.5362
L220.1723 185.4648
" />
<path d="M220.1723 185.4648
L220.3152 185.3933
" />
<path d="M220.3152 185.3933
L220.6009 185.3933
" />
<path d="M220.6009 185.3933
L220.7437 185.4648
" />
<path d="M221.1009 186.5362
L222.2437 186.5362
" />
<path d="M222.6009 185.3933
L222.6009 186.8933
" />
<path d="M222.6009 185.4648
L222.7437 185.3933
" />
<path d="M222.7437 185.3933
L223.0295 185.3933
" />
<path d="M223.0295 185.3933
L223.1723 185.4648
" />
<path d="M223.1723 185.4648
L223.2437 185.5362
" />
<path d="M223.2437 185.5362
L223.3152 185.6790
" />
<path d="M223.3152 185.6790
L223.3152 186.1076
" />
<path d="M223.3152 186.1076
L223.2437 186.2505
" />
<path d="M223.2437 186.2505
L223.1723 186.3219
" />
<path d="M223.1723 186.3219
L223.0295 186.3933
" />
<path d="M223.0295 186.3933
L222.7437 186.3933
" />
<path d="M222.7437 186.3933
L222.6009 186.3219
" />
<path d="M224.6009 186.3219
L224.4580 186.3933
" />
<path d="M224.4580 186.3933
L224.1723 186.3933
" />
<path d="M224.1723 186.3933
L224.0295 186.3219
" />
<path d="M224.0295 186.3219
L223.9580 186.2505
" />
<path d="M223.9580 186.2505
L223.8866 186.1076
" />
<path d="M223.8866 186.1076
L223.8866 185.6790
" />
<path d="M223.8866 185.6790
L223.9580 185.5362
" />
<path d="M223.9580 185.5362
L224.0295 185.4648
" />
<path d="M224.0295 185.4648
L224.1723 185.3933
" />
<path d="M224.1723 185.3933
L224.4580 185.3933
" />
<path d="M224.4580 185.3933
L224.6009 185.4648
" />
<path d="M225.2437 186.3933
L225.2437 184.8933
" />
<path d="M225.2437 185.4648
L225.3866 185.3933
" />
<path d="M225.3866 185.3933
L225.6723 185.3933
" />
<path d="M225.6723 185.3933
L225.8152 185.4648
" />
<path d="M225.8152 185.4648
L225.8866 185.5362
" />
<path d="M225.8866 185.5362
L225.9580 185.6790
" />
<path d="M225.9580 185.6790
L225.9580 186.1076
" />
<path d="M225.9580 186.1076
L225.8866 186.2505
" />
<path d="M225.8866 186.2505
L225.8152 186.3219
" />
<path d="M225.8152 186.3219
L225.6723 186.3933
" />
<path d="M225.6723 186.3933
L225.3866 186.3933
" />
<path d="M225.3866 186.3933
L225.2437 186.3219
" />
</g></g>
<g style="fill:#000000; fill-opacity:0.0; 
stroke:#000000; stroke-width:0.0212; stroke-opacity:1; 
stroke-linecap:round; stroke-linejoin:round;">
</g>
<g style="fill:#000000; fill-opacity:0.0; 
stroke:#000000; stroke-width:0.1500; stroke-opacity:1; 
stroke-linecap:round; stroke-linejoin:round;">
<path d="M177.0022 181.5072
L285.0022 181.5072
" />
</g>
<g style="fill:#000000; fill-opacity:0.0; 
stroke:#000000; stroke-width:0.0212; stroke-opacity:1; 
stroke-linecap:round; stroke-linejoin:round;">
</g>
<g style="fill:#000000; fill-opacity:0.0; 
stroke:#000000; stroke-width:0.1500; stroke-opacity:1; 
stroke-linecap:round; stroke-linejoin:round;">
<text x="178.0022" y="183.7572"
textLength="8.2214" font-size="2.0000" lengthAdjust="spacingAndGlyphs"
text-anchor="start" opacity="0">Sheet: </text>
<g class="stroked-text"><desc>Sheet: </desc>
<path d="M178.3866 183.6219
L178.6009 183.6933
" />
<path d="M178.6009 183.6933
L178.9580 183.6933
" />
<path d="M178.9580 183.6933
L179.1009 183.6219
" />
<path d="M179.1009 183.6219
L179.1723 183.5505
" />
<path d="M179.1723 183.5505
L179.2437 183.4076
" />
<path d="M179.2437 183.4076
L179.2437 183.2648
" />
<path d="M179.2437 183.2648
L179.1723 183.1219
" />
<path d="M179.1723 183.1219
L179.1009 183.0505
" />
<path d="M179.1009 183.0505
L178.9580 182.9790
" />
<path d="M178.9580 182.9790
L178.6723 182.9076
" />
<path d="M178.6723 182.9076
L178.5295 182.8362
" />
<path d="M178.5295 182.8362
L178.4580 182.7648
" />
<path d="M178.4580 182.7648
L178.3866 182.6219
" />
<path d="M178.3866 182.6219
L178.3866 182.4790
" />
<path d="M178.3866 182.4790
L178.4580 182.3362
" />
<path d="M178.4580 182.3362
L178.5295 182.2648
" />
<path d="M178.5295 182.2648
L178.6723 182.1933
" />
<path d="M178.6723 182.1933
L179.0295 182.1933
" />
<path d="M179.0295 182.1933
L179.2437 182.2648
" />
<path d="M179.8866 183.6933
L179.8866 182.1933
" />
<path d="M180.5295 183.6933
L180.5295 182.9076
" />
<path d="M180.5295 182.9076
L180.4580 182.7648
" />
<path d="M180.4580 182.7648
L180.3152 182.6933
" />
<path d="M180.3152 182.6933
L180.1009 182.6933
" />
<path d="M180.1009 182.6933
L179.9580 182.7648
" />
<path d="M179.9580 182.7648
L179.8866 182.8362
" />
<path d="M181.8152 183.6219
L181.6723 183.6933
" />
<path d="M181.6723 183.6933
L181.3866 183.6933
" />
<path d="M181.3866 183.6933
L181.2437 183.6219
" />
<path d="M181.2437 183.6219
L181.1723 183.4790
" />
<path d="M181.1723 183.4790
L181.1723 182.9076
" />
<path d="M181.1723 182.9076
L181.2437 182.7648
" />
<path d="M181.2437 182.7648
L181.3866 182.6933
" />
<path d="M181.3866 182.6933
L181.6723 182.6933
" />
<path d="M181.6723 182.6933
L181.8152 182.7648
" />
<path d="M181.8152 182.7648
L181.8866 182.9076
" />
<path d="M181.8866 182.9076
L181.8866 183.0505
" />
<path d="M181.8866 183.0505
L181.1723 183.1933
" />
<path d="M183.1009 183.6219
L182.9580 183.6933
" />
<path d="M182.9580 183.6933
L182.6723 183.6933
" />
<path d="M182.6723 183.6933
L182.5295 183.6219
" />
<path d="M182.5295 183.6219
L182.4580 183.4790
" />
<path d="M182.4580 183.4790
L182.4580 182.9076
" />
<path d="M182.4580 182.9076
L182.5295 182.7648
" />
<path d="M182.5295 182.7648
L182.6723 182.6933
" />
<path d="M182.6723 182.6933
L182.9580 182.6933
" />
<path d="M182.9580 182.6933
L183.1009 182.7648
" />
<path d="M183.1009 182.7648
L183.1723 182.9076
" />
<path d="M183.1723 182.9076
L183.1723 183.0505
" />
<path d="M183.1723 183.0505
L182.4580 183.1933
" />
<path d="M183.6009 182.6933
L184.1723 182.6933
" />
<path d="M183.8152 182.1933
L183.8152 183.4790
" />
<path d="M183.8152 183.4790
L183.8866 183.6219
" />
<path d="M183.8866 183.6219
L184.0295 183.6933
" />
<path d="M184.0295 183.6933
L184.1723 183.6933
" />
<path d="M184.6723 183.5505
L184.7437 183.6219
" />
<path d="M184.7437 183.6219
L184.6723 183.6933
" />
<path d="M184.6723 183.6933
L184.6009 183.6219
" />
<path d="M184.6009 183.6219
L184.6723 183.5505
" />
<path d="M184.6723 183.5505
L184.6723 183.6933
" />
<path d="M184.6723 182.7648
L184.7437 182.8362
" />
<path d="M184.7437 182.8362
L184.6723 182.9076
" />
<path d="M184.6723 182.9076
L184.6009 182.8362
" />
<path d="M184.6009 182.8362
L184.6723 182.7648
" />
<path d="M184.6723 182.7648
L184.6723 182.9076
" />
</g></g>
<g style="fill:#000000; fill-opacity:0.0; 
stroke:#000000; stroke-width:0.0212; stroke-opacity:1; 
stroke-linecap:round; stroke-linejoin:round;">
</g>
<g style="fill:#000000; fill-opacity:0.0; 
stroke:#000000; stroke-width:0.3000; stroke-opacity:1; 
stroke-linecap:round; stroke-linejoin:round;">
<text x="178.0022" y="180.7572"
textLength="0.9000" font-size="2.0000" lengthAdjust="spacingAndGlyphs"
text-anchor="start" opacity="0"></text>
<g class="stroked-text"><desc></desc>
</g></g>
<g style="fill:#000000; fill-opacity:0.0; 
stroke:#000000; stroke-width:0.0212; stroke-opacity:1; 
stroke-linecap:round; stroke-linejoin:round;">
</g>
<g style="fill:#000000; fill-opacity:0.0; 
stroke:#000000; stroke-width:0.1500; stroke-opacity:1; 
stroke-linecap:round; stroke-linejoin:round;">
<text x="178.0022" y="177.7572"
textLength="0.4500" font-size="2.0000" lengthAdjust="spacingAndGlyphs"
text-anchor="start" opacity="0"></text>
<g class="stroked-text"><desc></desc>
</g></g>
<g style="fill:#000000; fill-opacity:0.0; 
stroke:#000000; stroke-width:0.0212; stroke-opacity:1; 
stroke-linecap:round; stroke-linejoin:round;">
</g>
<g style="fill:#000000; fill-opacity:0.0; 
stroke:#000000; stroke-width:0.1500; stroke-opacity:1; 
stroke-linecap:round; stroke-linejoin:round;">
<text x="178.0022" y="174.7572"
textLength="0.4500" font-size="2.0000" lengthAdjust="spacingAndGlyphs"
text-anchor="start" opacity="0"></text>
<g class="stroked-text"><desc></desc>
</g></g>
<g style="fill:#000000; fill-opacity:0.0; 
stroke:#000000; stroke-width:0.0212; stroke-opacity:1; 
stroke-linecap:round; stroke-linejoin:round;">
</g>
<g style="fill:#000000; fill-opacity:0.0; 
stroke:#000000; stroke-width:0.1500; stroke-opacity:1; 
stroke-linecap:round; stroke-linejoin:round;">
<text x="178.0022" y="171.7572"
textLength="0.4500" font-size="2.0000" lengthAdjust="spacingAndGlyphs"
text-anchor="start" opacity="0"></text>
<g class="stroked-text"><desc></desc>
</g></g>
<g style="fill:#000000; fill-opacity:0.0; 
stroke:#000000; stroke-width:0.0212; stroke-opacity:1; 
stroke-linecap:round; stroke-linejoin:round;">
</g>
<g style="fill:#000000; fill-opacity:0.0; 
stroke:#000000; stroke-width:0.1500; stroke-opacity:1; 
stroke-linecap:round; stroke-linejoin:round;">
<text x="178.0022" y="168.7572"
textLength="0.4500" font-size="2.0000" lengthAdjust="spacingAndGlyphs"
text-anchor="start" opacity="0"></text>
<g class="stroked-text"><desc></desc>
</g></g>
<g style="fill:#000000; fill-opacity:0.0; 
stroke:#000000; stroke-width:0.0212; stroke-opacity:1; 
stroke-linecap:round; stroke-linejoin:round;">
</g>
<g style="fill:#000000; fill-opacity:0.0; 
stroke:#000000; stroke-width:0.1500; stroke-opacity:1; 
stroke-linecap:round; stroke-linejoin:round;">
<path d="M197.0022 191.5072
L197.0022 194.5072
" />
</g>
<g style="fill:#000000; fill-opacity:0.0; 
stroke:#000000; stroke-width:0.0212; stroke-opacity:1; 
stroke-linecap:round; stroke-linejoin:round;">
</g>
<g style="fill:#000000; fill-opacity:0.0; 
stroke:#000000; stroke-width:0.1500; stroke-opacity:1; 
stroke-linecap:round; stroke-linejoin:round;">
<path d="M261.0022 191.5072
L261.0022 198.0072
" />
</g>
<g style="fill:#FF26E2; fill-opacity:0.0; 
stroke:#FF26E2; stroke-width:0.1500; stroke-opacity:1; 
stroke-linecap:round; stroke-linejoin:round;">
</g>
<g style="fill:#FF26E2; fill-opacity:0.0; 
stroke:#FF26E2; stroke-width:0.0500; stroke-opacity:1; 
stroke-linecap:round; stroke-linejoin:round;">
<path d="M128.5062 74.2866
L125.1828 70.9632
" />
<path d="M126.8092 69.3369
L125.1828 70.9632
" />
<path d="M126.8092 69.3369
L130.1326 72.6603
" />
<path d="M130.1326 72.6603
L128.5062 74.2866
" />
<path d="M130.2818 72.4831
L126.9584 69.1597
" />
<path d="M128.5847 67.5334
L126.9584 69.1597
" />
<path d="M128.5847 67.5334
L131.9081 70.8568
" />
<path d="M131.9081 70.8568
L130.2818 72.4831
" />
<path d="M128.1840 66.4371
L129.2871 65.3340
" />
<path d="M129.2871 65.3340
L131.4084 67.4553
" />
<path d="M130.3053 68.5584
L128.1840 66.4371
" />
<path d="M131.4084 67.4553
L130.3053 68.5584
" />
<path d="M152.1681 76.9065
L154.9259 79.2205
" />
<path d="M154.9259 79.2205
L162.7036 69.9514
" />
<path d="M159.9458 67.6373
L152.1681 76.9065
" />
<path d="M162.7036 69.9514
L159.9458 67.6373
" />
<path d="M127.2491 50.1173
L125.7691 52.6807
" />
<path d="M125.9847 49.3873
L127.2491 50.1173
" />
<path d="M125.7691 52.6807
L124.5047 51.9507
" />
<path d="M124.5047 51.9507
L125.9847 49.3873
" />
<path d="M155.2500 67.1500
L162.2500 67.1500
" />
<path d="M162.2500 67.1500
L162.2500 56.0500
" />
<path d="M155.2500 56.0500
L155.2500 67.1500
" />
<path d="M162.2500 56.0500
L155.2500 56.0500
" />
<path d="M133.5300 76.4500
L133.5300 83.1000
" />
<path d="M133.5300 83.1000
L151.9700 83.1000
" />
<path d="M151.9700 76.4500
L133.5300 76.4500
" />
<path d="M151.9700 83.1000
L151.9700 76.4500
" />
<path d="M155.2322 79.4776
L157.9900 81.7916
" />
<path d="M157.9900 81.7916
L165.7677 72.5225
" />
<path d="M163.0099 70.2084
L155.2322 79.4776
" />
<path d="M165.7677 72.5225
L163.0099 70.2084
" />
<path d="M123.7108 51.9239
L126.5786 47.8281
" />
<path d="M126.5786 47.8281
L124.1212 46.1074
" />
<path d="M121.2533 50.2032
L123.7108 51.9239
" />
<path d="M124.1212 46.1074
L121.2533 50.2032
" />
<path d="M120.4879 52.0094
L119.1938 56.8390
" />
<path d="M119.1938 56.8390
L122.0916 57.6155
" />
<path d="M123.3857 52.7858
L120.4879 52.0094
" />
<path d="M122.0916 57.6155
L123.3857 52.7858
" />
<path d="M151.9700 90.9959
L151.9700 84.3459
" />
<path d="M151.9700 84.3459
L133.5300 84.3459
" />
<path d="M133.5300 90.9959
L151.9700 90.9959
" />
<path d="M133.5300 84.3459
L133.5300 90.9959
" />
<path d="M128.4020 81.3982
L131.0175 77.6628
" />
<path d="M130.2369 82.6830
L128.4020 81.3982
" />
<path d="M131.0175 77.6628
L132.8524 78.9476
" />
<path d="M132.8524 78.9476
L130.2369 82.6830
" />
<path d="M147.7715 45.2914
L145.3674 47.6955
" />
<path d="M145.3674 47.6955
L148.0827 50.4108
" />
<path d="M150.4868 48.0067
L147.7715 45.2914
" />
<path d="M148.0827 50.4108
L150.4868 48.0067
" />
<path d="M125.6120 74.6940
L123.1120 70.3639
" />
<path d="M123.1120 70.3639
L120.5140 71.8639
" />
<path d="M123.0140 76.1940
L125.6120 74.6940
" />
<path d="M120.5140 71.8639
L123.0140 76.1940
" />
<path d="M132.8090 39.6067
L129.8182 41.0014
" />
<path d="M129.8182 41.0014
L131.8468 45.3517
" />
<path d="M134.8376 43.9570
L132.8090 39.6067
" />
<path d="M131.8468 45.3517
L134.8376 43.9570
" />
<path d="M140.1575 37.3800
L146.7175 37.3800
" />
<path d="M140.1575 41.6200
L140.1575 37.3800
" />
<path d="M146.7175 37.3800
L146.7175 41.6200
" />
<path d="M146.7175 41.6200
L140.1575 41.6200
" />
<path d="M126.5858 47.5355
L130.1213 44.0000
" />
<path d="M130.1213 44.0000
L128.0000 41.8787
" />
<path d="M124.4645 45.4142
L126.5858 47.5355
" />
<path d="M128.0000 41.8787
L124.4645 45.4142
" />
<path d="M151.7089 49.5697
L149.6159 51.6627
" />
<path d="M150.6765 48.5373
L151.7089 49.5697
" />
<path d="M149.6159 51.6627
L148.5835 50.6303
" />
<path d="M148.5835 50.6303
L150.6765 48.5373
" />
<path d="M130.6567 77.2872
L127.7256 80.7804
" />
<path d="M128.9408 75.8474
L130.6567 77.2872
" />
<path d="M127.7256 80.7804
L126.0097 79.3406
" />
<path d="M126.0097 79.3406
L128.9408 75.8474
" />
<path d="M125.7500 66.3500
L123.2500 66.3500
" />
<path d="M125.7500 66.3500
L125.7500 69.6500
" />
<path d="M123.2500 69.6500
L123.2500 66.3500
" />
<path d="M123.2500 69.6500
L125.7500 69.6500
" />
<path d="M135.9811 38.1275
L132.9903 39.5222
" />
<path d="M132.9903 39.5222
L135.0189 43.8725
" />
<path d="M138.0097 42.4778
L135.9811 38.1275
" />
<path d="M135.0189 43.8725
L138.0097 42.4778
" />
<path d="M122.8233 56.7301
L123.5894 53.8710
" />
<path d="M124.2336 57.1080
L122.8233 56.7301
" />
<path d="M123.5894 53.8710
L124.9997 54.2489
" />
<path d="M124.9997 54.2489
L124.2336 57.1080
" />
<path d="M119.9080 69.9570
L122.4080 69.9570
" />
<path d="M119.9080 69.9570
L119.9080 67.4570
" />
<path d="M122.4080 67.4570
L122.4080 69.9570
" />
<path d="M122.4080 67.4570
L119.9080 67.4570
" />
<path d="M146.5451 44.4793
L144.4521 46.5723
" />
<path d="M145.5127 43.4469
L146.5451 44.4793
" />
<path d="M144.4521 46.5723
L143.4197 45.5399
" />
<path d="M143.4197 45.5399
L145.5127 43.4469
" />
<path d="M135.7017 57.4984
L141.5000 63.2967
" />
<path d="M141.5000 63.2967
L147.2983 57.4984
" />
<path d="M141.5000 51.7001
L135.7017 57.4984
" />
<path d="M147.2983 57.4984
L141.5000 51.7001
" />
<path d="M135.9099 70.0000
L141.7365 75.8266
" />
<path d="M141.7365 75.8266
L147.5631 70.0000
" />
<path d="M141.7365 64.1734
L135.9099 70.0000
" />
<path d="M147.5631 70.0000
L141.7365 64.1734
" />
<path d="M153.6346 51.1037
L151.2305 53.5078
" />
<path d="M152.2487 49.7178
L153.6346 51.1037
" />
<path d="M151.2305 53.5078
L149.8446 52.1219
" />
<path d="M149.8446 52.1219
L152.2487 49.7178
" />
<path d="M148.9708 44.5877
L150.6113 46.2282
" />
<path d="M150.6113 46.2282
L150.9012 45.9383
" />
<path d="M148.0657 43.1028
L149.2607 44.2978
" />
<path d="M148.0657 43.1028
L152.4498 38.7187
" />
<path d="M149.2607 44.2978
L148.9708 44.5877
" />
<path d="M150.9012 45.9383
L152.0962 47.1333
" />
<path d="M152.0962 47.1333
L156.4803 42.7492
" />
<path d="M152.4498 38.7187
L153.6448 39.9137
" />
<path d="M153.6448 39.9137
L153.9347 39.6238
" />
<path d="M155.2853 41.5542
L156.4803 42.7492
" />
<path d="M153.9347 39.6238
L155.5752 41.2643
" />
<path d="M155.5752 41.2643
L155.2853 41.5542
" />
<path d="M162.7500 66.1500
L162.7500 58.8500
" />
<path d="M167.2500 66.1500
L162.7500 66.1500
" />
<path d="M162.7500 58.8500
L167.2500 58.8500
" />
<path d="M167.2500 58.8500
L167.2500 66.1500
" />
<path d="M164.0505 48.0162
L157.8987 41.8644
" />
<path d="M164.0505 48.0162
L157.8987 54.1680
" />
<path d="M157.8987 41.8644
L151.7469 48.0162
" />
<path d="M157.8987 54.1680
L151.7469 48.0162
" />
<path d="M162.9171 57.6386
L167.3337 56.0311
" />
<path d="M162.9171 57.6386
L160.9813 52.3199
" />
<path d="M165.3978 50.7124
L167.3337 56.0311
" />
<path d="M165.3978 50.7124
L160.9813 52.3199
" />
<path d="M128.5805 75.4369
L125.0873 78.3680
" />
<path d="M127.1407 73.7210
L128.5805 75.4369
" />
<path d="M125.0873 78.3680
L123.6475 76.6521
" />
<path d="M123.6475 76.6521
L127.1407 73.7210
" />
<g >
</g>
<g >
</g>
<g >
</g>
<g >
</g>
<g >
</g>
<g >
</g>
<g >
</g>
<g >
</g>
<g >
</g>
<g >
</g>
<g >
</g>
<g >
</g>
<g >
</g>
<g >
</g>
<g >
</g>
<g >
</g>
<g >
</g>
<g >
</g>
<g >
</g>
<g >
</g>
<g >
</g>
<g >
</g>
<g >
</g>
<g >
</g>
<g >
</g>
<g >
</g>
<g >
</g>
<g >
</g>
<g >
</g>
<g >
</g>
<g >
</g>
<g >
</g>
<g >
</g>
<g >
</g>
<g >
</g>
<g >
</g>
<g >
</g>
<g >
</g>
<g >
</g>
<g >
</g>
<g >
</g>
<g >
</g>
<g >
</g>
<g >
</g>
<g >
</g>
<g >
</g>
<g >
</g>
<g >
</g>
<g >
</g>
<g >
</g>
<g >
</g>
<g >
</g>
<g >
</g>
<g >
</g>
<g >
</g>
<g >
</g>
<g >
</g>
<g >
</g>
<g >
</g>
<g >
</g>
<g >
</g>
<g >
</g>
<g >
</g>
<g >
</g>
<g >
</g>
<g >
</g>
<g >
</g>
<g >
</g>
<g >
</g>
<g >
</g>
<g >
</g>
<g >
</g>
</g>
<g style="fill:#000000; fill-opacity:0.0; 
stroke:#000000; stroke-width:0.0500; stroke-opacity:1; 
stroke-linecap:round; stroke-linejoin:round;">
</g>
<g style="fill:#D0D2CD; fill-opacity:0.0; 
stroke:#D0D2CD; stroke-width:0.0500; stroke-opacity:1; 
stroke-linecap:round; stroke-linejoin:round;">
</g>
<g style="fill:#D0D2CD; fill-opacity:0.0; 
stroke:#D0D2CD; stroke-width:0.1000; stroke-opacity:1; 
stroke-linecap:round; stroke-linejoin:round;">
<path d="M151.6000 101.7500 A3.8180 3.8180 0.0 0 0 155.6051 97.8955" />
<path d="M130.7500 98.0000 A3.8513 3.8513 0.0 0 0 134.6000 101.7497" />
<path d="M155.6062 97.8955
L155.5938 89.4016
" />
<path d="M134.6000 101.7497
L151.6000 101.7500
" />
<path d="M130.7500 89.2589
L130.7500 98.0000
" />
<path d="M134.5089 85.5000
L135.2500 85.5000
" />
<path d="M134.5089 85.5000 A3.7589 3.7589 0.0 0 0 130.7500 89.2589" />
<path d="M155.5938 89.4016 A3.9527 3.9527 0.0 0 0 151.6411 85.4490" />
<path d="M151.2500 85.4000
L151.2500 83.0000
" />
<path d="M151.6411 85.4490
L151.2500 85.4000
" />
<path d="M135.2500 85.5000
L135.2500 83.0000
" />
<path d="M130.2533 82.9946
L135.2500 83.0000
" />
<path d="M156.2500 83.0000
L151.2500 83.0000
" />
<circle cx="144.0000" cy="84.9459" r="0.5000" /> 
<circle cx="138.0000" cy="84.9459" r="0.5000" /> 
<circle cx="142.5000" cy="83.4459" r="0.5000" /> 
<circle cx="145.5000" cy="83.4459" r="0.5000" /> 
<circle cx="148.5000" cy="83.4459" r="0.5000" /> 
<circle cx="141.0000" cy="84.9459" r="0.5000" /> 
<circle cx="139.5000" cy="83.4459" r="0.5000" /> 
<path d="M156.2500 83.0000 A24.8397 24.8397 0.0 1 0 130.2533 82.9946" />
<circle cx="144.0000" cy="83.4459" r="0.5000" /> 
<circle cx="141.0000" cy="83.4459" r="0.5000" /> 
<circle cx="148.5000" cy="84.9459" r="0.5000" /> 
<circle cx="138.0000" cy="83.4459" r="0.5000" /> 
<circle cx="136.5000" cy="84.9459" r="0.5000" /> 
<circle cx="147.0000" cy="83.4459" r="0.5000" /> 
<circle cx="139.5000" cy="84.9459" r="0.5000" /> 
<circle cx="145.5000" cy="84.9459" r="0.5000" /> 
<circle cx="147.0000" cy="84.9459" r="0.5000" /> 
<circle cx="150.0000" cy="84.9459" r="0.5000" /> 
<circle cx="142.5000" cy="84.9459" r="0.5000" /> 
<circle cx="136.5000" cy="83.4459" r="0.5000" /> 
<circle cx="150.0000" cy="83.4459" r="0.5000" /> 
<g >
</g>
<g >
</g>
<g >
</g>
<g >
</g>
<g >
</g>
<g >
</g>
<g >
</g>
<g >
</g>
<g >
</g>
<g >
</g>
<g >
</g>
<g >
</g>
<g >
</g>
<g >
</g>
<g >
</g>
<g >
</g>
<g >
</g>
<g >
</g>
<g >
</g>
<g >
</g>
<g >
</g>
<g >
</g>
<g >
</g>
<g >
</g>
<g >
</g>
<g >
</g>
<g >
</g>
<g >
</g>
<g >
</g>
<g >
</g>
<g >
</g>
<g >
</g>
<g >
</g>
<g >
</g>
<g >
</g>
<g >
</g>
<g >
</g>
<g >
</g>
<g >
</g>
<g >
</g>
<g >
</g>
<g >
</g>
<g >
</g>
<g >
</g>
<g >
</g>
<g >
</g>
<g >
</g>
<g >
</g>
<g >
</g>
<g >
</g>
<g >
</g>
<g >
</g>
<g >
</g>
<g >
</g>
<g >
</g>
<g >
</g>
<g >
</g>
<g >
</g>
<g >
</g>
<g >
</g>
<g >
</g>
<g >
</g>
<g >
</g>
<g >
</g>
<g >
</g>
<g >
</g>
<g >
</g>
<g >
</g>
<g >
</g>
<g >
</g>
<g >
</g>
<g >
</g>
</g> 
</svg>
